<svg width="201" height="127" viewBox="0 0 201 127" fill="none" xmlns="http://www.w3.org/2000/svg">
<g clip-path="url(#clip0)">
<path d="M199.491 83.1798H121.893C121.493 83.1793 121.11 83.0206 120.827 82.7384C120.544 82.4562 120.385 82.0736 120.385 81.6746V1.50519C120.385 1.10613 120.544 0.723535 120.827 0.441353C121.11 0.159171 121.493 0.000445879 121.893 0H199.491C199.891 0.000445186 200.275 0.159171 200.557 0.441353C200.84 0.723535 200.999 1.10613 201 1.50519V81.6746C200.999 82.0736 200.84 82.4562 200.557 82.7384C200.275 83.0206 199.891 83.1793 199.491 83.1798ZM121.893 0.524793C121.633 0.525091 121.383 0.628478 121.199 0.812274C121.015 0.996071 120.911 1.24527 120.911 1.50519V81.6746C120.911 81.9345 121.015 82.1837 121.199 82.3675C121.383 82.5513 121.633 82.6547 121.893 82.655H199.491C199.752 82.6547 200.001 82.5513 200.186 82.3675C200.37 82.1837 200.474 81.9345 200.474 81.6746V1.50519C200.474 1.24527 200.37 0.996071 200.186 0.812274C200.001 0.628478 199.752 0.525091 199.491 0.524793H121.893Z" fill="#3F3D56"/>
<path d="M175.319 33.6934C177.052 36.8876 177.687 40.561 177.126 44.1499C176.564 47.7387 174.838 51.0446 172.211 53.5599C169.584 56.0752 166.202 57.6609 162.584 58.0736C158.966 58.4863 155.313 57.7031 152.184 55.8443C149.056 53.9856 146.625 51.1539 145.266 47.7842C143.907 44.4144 143.694 40.6928 144.66 37.1907C145.626 33.6886 147.718 30.5996 150.614 28.3979C153.51 26.1962 157.051 25.0036 160.692 25.0031C160.824 25.0031 160.956 25.0051 161.087 25.0081L160.911 17.922C160.838 17.9213 160.765 17.9192 160.692 17.9192C155.453 17.9207 150.362 19.6522 146.213 22.8435C142.064 26.0348 139.091 30.5064 137.758 35.5604C136.424 40.6145 136.805 45.9667 138.842 50.7818C140.879 55.5969 144.456 59.6041 149.016 62.178C153.575 64.7519 158.861 65.7477 164.048 65.01C169.234 64.2724 174.03 61.8428 177.687 58.1003C181.344 54.3579 183.656 49.5131 184.262 44.3221C184.869 39.1311 183.736 33.8858 181.039 29.4049L175.319 33.6934Z" fill="#3C72FF"/>
<path d="M175.318 33.6933L181.039 29.4048C178.95 25.9322 176.002 23.0527 172.478 21.0421C168.954 19.0316 164.971 17.9572 160.911 17.9219L161.087 25.008C164.016 25.0765 166.875 25.9158 169.374 27.441C171.873 28.9662 173.924 31.1232 175.318 33.6933Z" fill="#E6E6E6"/>
<path d="M172.772 61.9081L172.478 62.1982L180.811 70.589L181.105 70.2989L172.772 61.9081Z" fill="#3F3D56"/>
<path d="M178.121 10.5456L172.329 20.8469L172.69 21.0486L178.482 10.7473L178.121 10.5456Z" fill="#3F3D56"/>
<path d="M187.193 73.6852H174.896C174.677 73.685 174.468 73.5983 174.313 73.4441C174.158 73.29 174.071 73.081 174.071 72.8629V71.1353C174.071 70.9172 174.158 70.7082 174.313 70.5541C174.468 70.3999 174.677 70.3132 174.896 70.313H187.193C187.412 70.3132 187.621 70.3999 187.776 70.5541C187.931 70.7082 188.018 70.9172 188.018 71.1353V72.8629C188.018 73.081 187.931 73.29 187.776 73.4441C187.621 73.5983 187.412 73.685 187.193 73.6852V73.6852Z" fill="#3C72FF"/>
<path d="M184.076 10.7937H171.778C171.559 10.7935 171.35 10.7067 171.195 10.5526C171.041 10.3984 170.954 10.1894 170.953 9.97144V8.24368C170.954 8.02568 171.041 7.81668 171.195 7.66252C171.35 7.50837 171.559 7.42165 171.778 7.42139H184.076C184.294 7.42165 184.504 7.50837 184.658 7.66252C184.813 7.81668 184.9 8.02568 184.9 8.24368V9.97144C184.9 10.1894 184.813 10.3984 184.658 10.5526C184.504 10.7067 184.294 10.7935 184.076 10.7937V10.7937Z" fill="#E6E6E6"/>
<path d="M107.98 38.2765H20.2876C19.9065 38.2761 19.5411 38.1249 19.2716 37.856C19.0021 37.5872 18.8505 37.2227 18.8501 36.8426V1.69641C18.8505 1.31623 19.0021 0.951749 19.2716 0.682924C19.5411 0.414099 19.9065 0.262882 20.2876 0.262451H107.98C108.361 0.262896 108.727 0.414116 108.996 0.68294C109.266 0.951764 109.417 1.31624 109.418 1.69641V36.8426C109.417 37.2227 109.266 37.5872 108.996 37.856C108.727 38.1249 108.361 38.2761 107.98 38.2765ZM20.2876 0.787244C20.046 0.787506 19.8143 0.883377 19.6434 1.05382C19.4726 1.22427 19.3765 1.45536 19.3762 1.69641V36.8426C19.3765 37.0836 19.4726 37.3147 19.6434 37.4851C19.8143 37.6556 20.046 37.7515 20.2876 37.7517H107.98C108.222 37.7515 108.454 37.6556 108.624 37.4851C108.795 37.3147 108.891 37.0836 108.892 36.8426V1.69641C108.891 1.45537 108.795 1.22428 108.624 1.05384C108.454 0.883398 108.222 0.787519 107.98 0.787244H20.2876Z" fill="#3F3D56"/>
<path d="M49.4367 83.8268C49.0319 83.7445 48.6501 83.5747 48.3182 83.3294C47.9863 83.084 47.7124 82.769 47.5157 82.4066C47.319 82.0442 47.2044 81.6432 47.1799 81.2318C47.1554 80.8204 47.2216 80.4087 47.3739 80.0256L35.7117 55.0478L41.6279 53.3892L51.2415 78.4937C51.8697 78.7915 52.3665 79.3089 52.6379 79.9477C52.9092 80.5865 52.9362 81.3024 52.7138 81.9598C52.4913 82.6172 52.0349 83.1703 51.4309 83.5144C50.8269 83.8585 50.1174 83.9696 49.4367 83.8268V83.8268Z" fill="#A0616A"/>
<path d="M26.8518 123.684H30.0768L31.6109 111.276H26.8513L26.8518 123.684Z" fill="#A0616A"/>
<path d="M36.2964 126.671L26.1609 126.672L26.1607 122.765L32.3802 122.765C33.4188 122.765 34.4149 123.177 35.1493 123.909C35.8837 124.642 36.2963 125.635 36.2964 126.671V126.671V126.671Z" fill="#2F2E41"/>
<path d="M10.0891 120.216L13.0534 121.483L19.3619 110.68L14.9866 108.811L10.0891 120.216Z" fill="#A0616A"/>
<path d="M17.5916 126.672L8.2747 122.691L9.8165 119.1L15.5337 121.543C16.4884 121.951 17.2415 122.72 17.6275 123.682C18.0134 124.644 18.0005 125.719 17.5916 126.672V126.672V126.672Z" fill="#2F2E41"/>
<path d="M34.8253 43.3297C38.3935 43.3297 41.286 40.4442 41.286 36.8849C41.286 33.3256 38.3935 30.4402 34.8253 30.4402C31.2571 30.4402 28.3645 33.3256 28.3645 36.8849C28.3645 40.4442 31.2571 43.3297 34.8253 43.3297Z" fill="#A0616A"/>
<path d="M30.1577 120.651L26.6075 119.976C26.3157 119.922 26.0551 119.76 25.8778 119.523C25.7005 119.286 25.6196 118.99 25.6515 118.696L28.0056 95.7995C28.0281 95.581 27.9714 95.3618 27.8457 95.1815C27.72 95.0012 27.5338 94.8718 27.3206 94.8167C27.1075 94.7616 26.8817 94.7846 26.6841 94.8813C26.4865 94.9781 26.3301 95.1423 26.2435 95.3441L15.9658 119.266C15.904 119.41 15.8142 119.54 15.7016 119.649C15.5891 119.758 15.4559 119.843 15.31 119.9C15.164 119.957 15.0082 119.985 14.8514 119.981C14.6947 119.978 14.5402 119.943 14.397 119.88L11.5095 118.6C11.24 118.481 11.0246 118.267 10.9057 117.998C10.7869 117.729 10.7731 117.426 10.8673 117.147L17.8965 96.1116C17.9163 96.0524 17.93 95.9914 17.9374 95.9294L20.2191 76.7096C20.244 76.4998 20.3248 76.3005 20.4532 76.1325C20.5816 75.9644 20.7529 75.8339 20.9491 75.7543L28.1536 72.8349C28.3667 72.7485 28.6005 72.726 28.8263 72.77C29.0521 72.814 29.2601 72.9226 29.425 73.0827L38.5187 81.9153C38.6604 82.0523 38.7654 82.2226 38.8239 82.4106C38.8825 82.5986 38.8928 82.7982 38.854 82.9912L31.5402 119.721C31.4861 119.989 31.3408 120.23 31.1291 120.403C30.9174 120.576 30.6522 120.671 30.3784 120.672C30.3043 120.672 30.2304 120.665 30.1577 120.651V120.651Z" fill="#2F2E41"/>
<path d="M26.1103 77.7694C24.8517 76.3157 23.9332 75.6559 23.305 75.7599C22.6816 75.8604 22.3221 76.729 21.9413 77.6487C21.4216 78.9041 20.8326 80.327 19.3807 80.4382C19.1546 80.477 18.9222 80.4515 18.71 80.3647C18.4978 80.2779 18.3143 80.1334 18.1806 79.9475C17.0385 78.2532 19.7778 72.6465 20.0281 72.1427L19.8996 45.6248C19.8979 45.4108 19.9545 45.2004 20.0636 45.0162C20.1726 44.832 20.3299 44.6808 20.5186 44.579C28.0462 40.5298 38.2105 47.572 40.1716 49.0252C40.3285 49.1411 40.4541 49.294 40.5373 49.4703C40.6204 49.6465 40.6584 49.8406 40.6479 50.035C40.4112 54.4763 39.2308 76.8836 39.2308 81.8819C39.2308 83.2656 38.7524 84.1448 37.8087 84.4948C37.4901 84.6076 37.1539 84.6626 36.8158 84.6573C33.9366 84.6573 29.2208 81.362 26.1103 77.7694Z" fill="#CCCCCC"/>
<path d="M36.6156 64.893C36.4582 64.791 36.3277 64.6528 36.2351 64.4899C36.1425 64.327 36.0905 64.1443 36.0836 63.9572L35.5736 52.0797C35.5422 51.3484 35.7727 50.6299 36.2238 50.0526C36.6749 49.4753 37.3172 49.077 38.0358 48.929C38.7544 48.7809 39.5024 48.8927 40.1459 49.2445C40.7894 49.5962 41.2864 50.1648 41.548 50.8487L45.3642 60.8241C45.4757 61.1167 45.4664 61.4415 45.3382 61.7272C45.21 62.013 44.9734 62.2363 44.6803 62.3483L37.6882 65.0099C37.5131 65.0775 37.3243 65.1022 37.1376 65.0819C36.951 65.0616 36.7719 64.9968 36.6156 64.893V64.893Z" fill="#CCCCCC"/>
<path d="M18.8473 83.4518C18.5045 83.2218 18.2164 82.9197 18.0034 82.5666C17.7903 82.2135 17.6575 81.8181 17.6142 81.4083C17.5709 80.9985 17.6182 80.5842 17.7528 80.1946C17.8874 79.805 18.106 79.4495 18.3932 79.1533L17.1594 51.6267L23.2626 52.3436L22.5541 79.208C23.0211 79.7223 23.2826 80.3896 23.2893 81.0833C23.296 81.7771 23.0473 82.4493 22.5904 82.9724C22.1335 83.4955 21.5 83.8332 20.8102 83.9216C20.1203 84.01 19.4219 83.8428 18.8473 83.4518H18.8473Z" fill="#A0616A"/>
<path d="M14.6092 58.9565C14.4985 58.8052 14.426 58.6296 14.3977 58.4445C14.3694 58.2594 14.3861 58.0702 14.4464 57.8929L18.2153 46.6144C18.4473 45.92 18.9195 45.3306 19.5473 44.9517C20.1751 44.5728 20.9176 44.4292 21.6419 44.5464C22.3662 44.6636 23.025 45.0342 23.5005 45.5917C23.976 46.1492 24.237 46.8572 24.237 47.5892V58.2662C24.2366 58.5793 24.1118 58.8794 23.8899 59.1008C23.668 59.3221 23.3671 59.4466 23.0533 59.447H15.5695C15.3817 59.448 15.1965 59.404 15.0293 59.3186C14.8622 59.2333 14.7181 59.1091 14.6092 58.9565V58.9565Z" fill="#CCCCCC"/>
<path d="M30.6531 41.2197C30.4112 41.4088 30.1091 41.5044 29.8022 41.4892C29.4953 41.4739 29.2043 41.3488 28.9824 41.1367C27.5978 39.8456 26.4292 38.3017 25.8377 36.5138C25.1601 34.465 25.3332 32.0654 26.631 30.3395C27.728 28.8806 29.4645 28.0564 31.1749 27.412C31.8427 27.1304 32.5481 26.9476 33.2688 26.8696C33.9969 26.7942 34.7263 26.9986 35.3086 27.4409C35.5924 27.667 35.8013 27.9731 35.9081 28.3193C36.0149 28.6655 36.0145 29.0358 35.9072 29.3819C36.7843 28.5872 37.8545 28.0349 39.0115 27.7799C39.7439 27.5863 40.5179 27.6183 41.2317 27.8717C42.2236 28.2786 42.868 29.2725 43.1649 30.3006C43.4104 31.0848 43.4303 31.9221 43.2223 32.717C43.1155 33.1122 42.9267 33.4807 42.6682 33.7986C42.4096 34.1164 42.0871 34.3766 41.7214 34.5623C40.8138 34.9888 39.7369 34.8278 38.7879 34.5031C37.839 34.1784 36.9394 33.6993 35.9579 33.4922C34.9764 33.2851 33.8432 33.4059 33.1488 34.1281C32.6597 34.6366 32.4671 35.352 32.2922 36.0348L31.3824 39.586C31.282 40.1033 31.0898 40.5986 30.815 41.0485C30.769 41.1126 30.7146 41.1702 30.6531 41.2197V41.2197Z" fill="#2F2E41"/>
<path d="M55.2937 90.2723H46.7973C46.5802 90.2719 46.3703 90.1946 46.2049 90.0543C46.0396 89.9139 45.9296 89.7196 45.8944 89.5059C45.3402 85.9152 45.3402 82.2611 45.8944 78.6705C45.9296 78.4568 46.0396 78.2625 46.2049 78.1221C46.3703 77.9818 46.5802 77.9045 46.7973 77.9041H55.2937C55.4314 77.9036 55.5674 77.9345 55.6913 77.9944C55.8152 78.0543 55.9238 78.1417 56.0087 78.2497C56.0956 78.3593 56.1562 78.4872 56.186 78.6236C56.2158 78.7601 56.214 78.9015 56.1807 79.0372C55.386 82.3579 55.386 85.8185 56.1807 89.1392C56.214 89.2748 56.2158 89.4163 56.186 89.5527C56.1562 89.6892 56.0956 89.8171 56.0087 89.9266C55.9238 90.0347 55.8152 90.122 55.6913 90.1819C55.5674 90.2418 55.4314 90.2727 55.2937 90.2723Z" fill="#3C72FF"/>
<path d="M42.6141 127H0.26305C0.193285 127 0.126377 126.972 0.0770453 126.923C0.0277139 126.874 0 126.807 0 126.737C0 126.668 0.0277139 126.601 0.0770453 126.552C0.126377 126.503 0.193285 126.475 0.26305 126.475H42.6141C42.6838 126.475 42.7507 126.503 42.8001 126.552C42.8494 126.601 42.8771 126.668 42.8771 126.737C42.8771 126.807 42.8494 126.874 42.8001 126.923C42.7507 126.972 42.6838 127 42.6141 127Z" fill="#3F3D56"/>
<rect x="94.3569" y="4.41309" width="3.93154" height="29.9112" fill="#E6E6E6"/>
<rect x="78.6309" y="10.7876" width="3.93155" height="23.5367" fill="#E6E6E6"/>
<rect x="71.2593" y="24.5173" width="3.93153" height="9.80695" fill="#E6E6E6"/>
<rect x="63.396" y="12.749" width="3.93155" height="21.5753" fill="#E6E6E6"/>
<rect x="86.4939" y="15.6912" width="3.93153" height="18.6332" fill="#E6E6E6"/>
</g>
<defs>
<clipPath id="clip0">
<rect width="201" height="127" fill="white"/>
</clipPath>
</defs>
</svg>
