<svg width="201" height="102" viewBox="0 0 201 102" fill="none" xmlns="http://www.w3.org/2000/svg">
<g clip-path="url(#clip0)">
<path d="M64.1229 69.0251L63.8599 69.3616L86.4745 88.0224L86.7376 87.6859L64.1229 69.0251Z" fill="#E6E6E6"/>
<path d="M86.4748 69.132L63.8579 88.0142L64.123 88.3494L86.7399 69.4673L86.4748 69.132Z" fill="#E6E6E6"/>
<path d="M120.946 20.3484L120.68 20.6824L172.077 63.9548L172.344 63.6208L120.946 20.3484Z" fill="#E6E6E6"/>
<path d="M172.07 20.3406L120.686 63.8455L120.953 64.1786L172.337 20.6737L172.07 20.3406Z" fill="#E6E6E6"/>
<path d="M187.535 0H1.57593C1.15801 0.000155065 0.757256 0.170791 0.461745 0.474409C0.166234 0.778026 0.000150925 1.18978 0 1.61916V100.28C0.000151482 100.709 0.166235 101.121 0.461745 101.425C0.757256 101.728 1.15801 101.899 1.57593 101.899H187.535C187.782 101.898 188.025 101.838 188.245 101.723C188.465 101.608 188.656 101.442 188.802 101.238C188.887 101.126 188.954 101 189.002 100.867C189.075 100.68 189.112 100.481 189.111 100.28V1.61916C189.111 1.18978 188.945 0.778029 188.649 0.474412C188.354 0.170795 187.953 0.000155637 187.535 0V0ZM188.481 100.28C188.48 100.537 188.381 100.784 188.203 100.966C188.026 101.148 187.786 101.251 187.535 101.251H1.57593C1.32527 101.251 1.08498 101.148 0.907735 100.966C0.730491 100.784 0.630749 100.537 0.63037 100.28V1.61916C0.630747 1.36162 0.730489 1.11474 0.907733 0.932633C1.08498 0.750526 1.32526 0.64805 1.57593 0.647663H187.535C187.786 0.64805 188.026 0.750526 188.203 0.932633C188.381 1.11474 188.48 1.36162 188.481 1.61916V100.28Z" fill="#E6E6E6"/>
<path d="M189.111 8.2749H0.630371V8.70668H189.111V8.2749Z" fill="#E6E6E6"/>
<path d="M195.403 88.8269C195.289 93.2025 194.575 97.5398 193.284 101.711C193.254 101.808 193.223 101.903 193.192 102H185.284C185.293 101.913 185.301 101.816 185.309 101.711C185.837 95.4827 188.877 57.5762 185.242 51.0938C185.56 51.6196 196.016 69.0371 195.403 88.8269Z" fill="#E6E6E6"/>
<path d="M194.809 101.711C194.743 101.808 194.674 101.905 194.604 102H188.672C188.717 101.918 188.769 101.821 188.829 101.711C189.809 99.8938 192.71 94.4602 195.403 88.8272C198.297 82.7739 200.951 76.4908 200.728 74.2168C200.797 74.7297 202.799 90.3644 194.809 101.711Z" fill="#E6E6E6"/>
<path d="M114.639 39.8244H64.6298C64.2398 39.8239 63.866 39.6646 63.5902 39.3813C63.3145 39.098 63.1594 38.7138 63.1589 38.3132V21.258C63.1594 20.8574 63.3145 20.4733 63.5902 20.1899C63.866 19.9066 64.2398 19.7473 64.6298 19.7468H114.639C115.029 19.7473 115.403 19.9066 115.679 20.1899C115.955 20.4733 116.11 20.8574 116.11 21.258V38.3132C116.11 38.7138 115.955 39.098 115.679 39.3813C115.403 39.6646 115.029 39.8239 114.639 39.8244V39.8244ZM64.6298 20.1786C64.3513 20.1789 64.0842 20.2928 63.8873 20.4951C63.6903 20.6975 63.5795 20.9719 63.5792 21.258V38.3132C63.5795 38.5994 63.6903 38.8737 63.8873 39.0761C64.0842 39.2784 64.3513 39.3923 64.6298 39.3926H114.639C114.918 39.3923 115.185 39.2784 115.382 39.0761C115.579 38.8737 115.689 38.5994 115.69 38.3132V21.258C115.689 20.9719 115.579 20.6975 115.382 20.4951C115.185 20.2928 114.918 20.1789 114.639 20.1786H64.6298Z" fill="#E6E6E6"/>
<path d="M171.793 88.831H121.783C121.393 88.8305 121.02 88.6711 120.744 88.3878C120.468 88.1045 120.313 87.7204 120.312 87.3198V70.2646C120.313 69.864 120.468 69.4799 120.744 69.1966C121.02 68.9132 121.393 68.7539 121.783 68.7534H171.793C172.183 68.7539 172.557 68.9133 172.832 69.1966C173.108 69.4799 173.263 69.864 173.264 70.2646V87.3198C173.263 87.7204 173.108 88.1045 172.832 88.3878C172.557 88.6711 172.183 88.8305 171.793 88.831V88.831Z" fill="#E6E6E6"/>
<path d="M85.8523 64.2197H64.6298C64.2398 64.2192 63.866 64.0598 63.5902 63.7765C63.3145 63.4932 63.1594 63.1091 63.1589 62.7084V45.6533C63.1594 45.2526 63.3145 44.8685 63.5902 44.5852C63.866 44.3019 64.2398 44.1425 64.6298 44.1421H85.8523C86.2422 44.1425 86.6161 44.3019 86.8918 44.5852C87.1676 44.8685 87.3227 45.2526 87.3231 45.6533V62.7084C87.3227 63.1091 87.1676 63.4932 86.8918 63.7765C86.6161 64.0598 86.2422 64.2192 85.8523 64.2197V64.2197ZM64.6298 44.5739C64.3513 44.5742 64.0842 44.688 63.8873 44.8904C63.6903 45.0928 63.5795 45.3671 63.5792 45.6533V62.7084C63.5795 62.9946 63.6903 63.269 63.8873 63.4714C64.0842 63.6737 64.3513 63.7875 64.6298 63.7879H85.8523C86.1308 63.7875 86.3979 63.6737 86.5948 63.4714C86.7918 63.269 86.9026 62.9946 86.9029 62.7084V45.6533C86.9026 45.3671 86.7918 45.0928 86.5948 44.8904C86.3979 44.688 86.1308 44.5742 85.8523 44.5739H64.6298Z" fill="#E6E6E6"/>
<path d="M114.639 64.2197H93.4167C93.0267 64.2192 92.6528 64.0598 92.3771 63.7765C92.1014 63.4932 91.9463 63.1091 91.9458 62.7084V45.6533C91.9462 45.2526 92.1013 44.8685 92.3771 44.5852C92.6528 44.3019 93.0267 44.1425 93.4167 44.1421H114.639C115.029 44.1425 115.403 44.3019 115.679 44.5852C115.954 44.8685 116.11 45.2526 116.11 45.6533V62.7084C116.11 63.1091 115.954 63.4932 115.679 63.7765C115.403 64.0598 115.029 64.2192 114.639 64.2197V64.2197Z" fill="#E6E6E6"/>
<path d="M85.8523 88.6149H64.6298C64.2398 88.6144 63.866 88.4551 63.5902 88.1718C63.3145 87.8885 63.1594 87.5044 63.1589 87.1037V70.0486C63.1594 69.6479 63.3145 69.2638 63.5902 68.9805C63.866 68.6972 64.2398 68.5378 64.6298 68.5374H85.8523C86.2422 68.5378 86.6161 68.6972 86.8918 68.9805C87.1676 69.2638 87.3227 69.6479 87.3231 70.0486V87.1037C87.3227 87.5044 87.1676 87.8885 86.8918 88.1718C86.6161 88.4551 86.2422 88.6144 85.8523 88.6149V88.6149ZM64.6298 68.9691C64.3513 68.9695 64.0842 69.0833 63.8873 69.2857C63.6903 69.488 63.5795 69.7624 63.5792 70.0486V87.1037C63.5795 87.3899 63.6903 87.6642 63.8873 87.8666C64.0842 88.069 64.3513 88.1828 64.6298 88.1831H85.8523C86.1308 88.1828 86.3979 88.069 86.5948 87.8666C86.7918 87.6642 86.9026 87.3899 86.9029 87.1037V70.0486C86.9026 69.7624 86.7918 69.488 86.5948 69.2857C86.3979 69.0833 86.1308 68.9695 85.8523 68.9691H64.6298Z" fill="#3F3D56"/>
<path d="M114.639 88.6149H93.4167C93.0267 88.6144 92.6528 88.4551 92.3771 88.1718C92.1014 87.8885 91.9463 87.5044 91.9458 87.1037V70.0486C91.9463 69.6479 92.1014 69.2638 92.3771 68.9805C92.6528 68.6972 93.0267 68.5378 93.4167 68.5374H114.639C115.029 68.5378 115.403 68.6972 115.679 68.9805C115.954 69.2638 116.11 69.6479 116.11 70.0486V87.1037C116.11 87.5044 115.954 87.8885 115.679 88.1718C115.403 88.4551 115.029 88.6144 114.639 88.6149V88.6149ZM93.4167 68.9691C93.1381 68.9695 92.8711 69.0833 92.6741 69.2857C92.4772 69.488 92.3664 69.7624 92.366 70.0486V87.1037C92.3664 87.3899 92.4772 87.6642 92.6741 87.8666C92.8711 88.069 93.1381 88.1828 93.4167 88.1831H114.639C114.918 88.1828 115.185 88.069 115.382 87.8666C115.579 87.6642 115.689 87.3899 115.69 87.1037V70.0486C115.689 69.7624 115.579 69.488 115.382 69.2857C115.185 69.0833 114.918 68.9695 114.639 68.9691H93.4167Z" fill="#E6E6E6"/>
<path d="M171.583 64.4356H121.573C121.183 64.4351 120.809 64.2757 120.534 63.9924C120.258 63.7091 120.103 63.325 120.102 62.9244V21.258C120.103 20.8574 120.258 20.4733 120.534 20.1899C120.809 19.9066 121.183 19.7473 121.573 19.7468H171.583C171.973 19.7473 172.346 19.9067 172.622 20.19C172.898 20.4733 173.053 20.8574 173.053 21.258V62.9244C173.053 63.325 172.898 63.7091 172.622 63.9924C172.346 64.2757 171.973 64.4351 171.583 64.4356V64.4356ZM121.573 20.1786C121.295 20.1789 121.028 20.2928 120.831 20.4951C120.634 20.6975 120.523 20.9719 120.523 21.258V62.9244C120.523 63.2105 120.634 63.4849 120.831 63.6873C121.028 63.8896 121.295 64.0035 121.573 64.0038H171.583C171.861 64.0035 172.128 63.8896 172.325 63.6873C172.522 63.4849 172.633 63.2105 172.633 62.9244V21.258C172.633 20.9719 172.522 20.6975 172.325 20.4951C172.128 20.2928 171.861 20.1789 171.583 20.1786H121.573Z" fill="#3F3D56"/>
<path d="M179.778 71.9917H129.768C129.378 71.9913 129.004 71.8319 128.729 71.5486C128.453 71.2653 128.298 70.8812 128.297 70.4805V28.8142C128.298 28.4135 128.453 28.0294 128.729 27.7461C129.004 27.4628 129.378 27.3034 129.768 27.303H179.778C180.168 27.3034 180.541 27.4628 180.817 27.7461C181.093 28.0294 181.248 28.4135 181.248 28.8142V70.4805C181.248 70.8812 181.093 71.2653 180.817 71.5486C180.541 71.8319 180.168 71.9913 179.778 71.9917V71.9917Z" fill="#3C72FF"/>
<path d="M160.478 61.737H134.947C134.915 61.7375 134.883 61.7349 134.852 61.7293L146.927 40.2397C147 40.1059 147.107 39.9946 147.237 39.9171C147.366 39.8397 147.513 39.7988 147.662 39.7988C147.812 39.7988 147.959 39.8397 148.088 39.9171C148.218 39.9946 148.325 40.1059 148.398 40.2397L156.502 54.6609L156.89 55.3509L160.478 61.737Z" fill="white"/>
<path opacity="0.2" d="M160.478 61.737H151.761L156.04 55.3509L156.348 54.8908L156.502 54.6609L156.891 55.3509L160.478 61.737Z" fill="black"/>
<path d="M174.694 61.7369H152.612L156.891 55.3508L157.199 54.8908L162.775 46.5684C162.873 46.4413 162.997 46.3369 163.137 46.262C163.278 46.1871 163.432 46.1434 163.59 46.1337C163.748 46.124 163.906 46.1485 164.054 46.2057C164.202 46.2629 164.337 46.3514 164.45 46.4656C164.478 46.4981 164.505 46.5324 164.53 46.5684L174.694 61.7369Z" fill="white"/>
<path d="M158.051 45.3296C160.14 45.3296 161.833 43.5898 161.833 41.4436C161.833 39.2974 160.14 37.5576 158.051 37.5576C155.962 37.5576 154.269 39.2974 154.269 41.4436C154.269 43.5898 155.962 45.3296 158.051 45.3296Z" fill="white"/>
<path d="M135.652 30.3252H131.029V35.0747H135.652V30.3252Z" fill="#3F3D56"/>
<path d="M91.7358 93.3647H70.5133C70.1234 93.3642 69.7495 93.2048 69.4738 92.9215C69.198 92.6382 69.0429 92.2541 69.0425 91.8535V74.7983C69.0429 74.3977 69.198 74.0135 69.4738 73.7302C69.7495 73.4469 70.1234 73.2876 70.5133 73.2871H91.7358C92.1258 73.2876 92.4996 73.4469 92.7754 73.7302C93.0511 74.0135 93.2062 74.3977 93.2067 74.7983V91.8535C93.2062 92.2541 93.0511 92.6382 92.7754 92.9215C92.4996 93.2048 92.1258 93.3642 91.7358 93.3647Z" fill="#3C72FF"/>
<path d="M83.5057 88.3708H72.8513C72.838 88.3709 72.8247 88.3699 72.8115 88.3675L77.8505 79.3998C77.8813 79.344 77.9259 79.2975 77.9799 79.2652C78.0338 79.2329 78.0952 79.2158 78.1576 79.2158C78.2201 79.2158 78.2814 79.2329 78.3354 79.2652C78.3893 79.2975 78.4339 79.344 78.4647 79.3998L81.8465 85.4178L82.0085 85.7058L83.5057 88.3708Z" fill="white"/>
<path opacity="0.2" d="M83.5054 88.3709H79.8679L81.6535 85.706L81.7821 85.514L81.8462 85.418L82.0082 85.706L83.5054 88.3709Z" fill="black"/>
<path d="M89.4377 88.3708H80.2227L82.0084 85.7059L82.1369 85.5139L84.4638 82.0409C84.5049 81.9879 84.5565 81.9443 84.6151 81.9131C84.6737 81.8818 84.738 81.8636 84.8039 81.8595C84.8698 81.8555 84.9359 81.8657 84.9977 81.8896C85.0595 81.9134 85.1157 81.9504 85.1627 81.998C85.1747 82.0116 85.1859 82.0259 85.1962 82.0409L89.4377 88.3708Z" fill="white"/>
<path d="M82.4924 81.5238C83.3641 81.5238 84.0707 80.7978 84.0707 79.9022C84.0707 79.0065 83.3641 78.2805 82.4924 78.2805C81.6207 78.2805 80.9141 79.0065 80.9141 79.9022C80.9141 80.7978 81.6207 81.5238 82.4924 81.5238Z" fill="white"/>
<path d="M74.5055 75.0139H71.1436V78.4681H74.5055V75.0139Z" fill="#3F3D56"/>
<path d="M21.0539 30.8403C20.7261 30.8459 20.4137 30.9836 20.1838 31.2237C19.954 31.4639 19.8252 31.7871 19.8252 32.1239C19.8252 32.4607 19.954 32.784 20.1838 33.0241C20.4137 33.2643 20.7261 33.402 21.0539 33.4076H43.5551C43.8858 33.4121 44.2048 33.2818 44.4421 33.0451C44.6794 32.8084 44.8157 32.4847 44.8212 32.1449C44.8266 31.8052 44.7007 31.4771 44.4711 31.2325C44.2415 30.988 43.9268 30.8469 43.5962 30.8403C43.5825 30.84 43.5688 30.84 43.5551 30.8403H21.0539Z" fill="#E6E6E6"/>
<path d="M21.0539 37.5329C20.7261 37.5385 20.4137 37.6762 20.1838 37.9164C19.954 38.1565 19.8252 38.4798 19.8252 38.8166C19.8252 39.1533 19.954 39.4766 20.1838 39.7168C20.4137 39.9569 20.7261 40.0946 21.0539 40.1002H43.5551C43.8858 40.1048 44.2048 39.9744 44.4421 39.7377C44.6794 39.501 44.8157 39.1773 44.8212 38.8376C44.8266 38.4978 44.7007 38.1697 44.4711 37.9251C44.2415 37.6806 43.9268 37.5395 43.5962 37.5329C43.5825 37.5327 43.5688 37.5327 43.5551 37.5329H21.0539Z" fill="#E6E6E6"/>
<path d="M21.0539 44.2253C20.7261 44.2309 20.4137 44.3686 20.1838 44.6087C19.954 44.8489 19.8252 45.1722 19.8252 45.5089C19.8252 45.8457 19.954 46.169 20.1838 46.4091C20.4137 46.6493 20.7261 46.787 21.0539 46.7926H43.5551C43.8858 46.7971 44.2048 46.6668 44.4421 46.4301C44.6794 46.1934 44.8157 45.8697 44.8212 45.53C44.8266 45.1902 44.7007 44.8621 44.4711 44.6175C44.2415 44.373 43.9268 44.2319 43.5962 44.2253C43.5825 44.225 43.5688 44.225 43.5551 44.2253H21.0539Z" fill="#E6E6E6"/>
<path d="M21.0539 50.9179C20.7261 50.9235 20.4137 51.0612 20.1838 51.3014C19.954 51.5415 19.8252 51.8648 19.8252 52.2016C19.8252 52.5384 19.954 52.8616 20.1838 53.1018C20.4137 53.3419 20.7261 53.4796 21.0539 53.4852H43.5551C43.8858 53.4898 44.2048 53.3594 44.4421 53.1227C44.6794 52.886 44.8157 52.5623 44.8212 52.2226C44.8266 51.8828 44.7007 51.5547 44.4711 51.3101C44.2415 51.0656 43.9268 50.9245 43.5962 50.9179C43.5825 50.9177 43.5688 50.9177 43.5551 50.9179H21.0539Z" fill="#E6E6E6"/>
<path d="M21.0539 57.6103C20.7261 57.6159 20.4137 57.7536 20.1838 57.9937C19.954 58.2339 19.8252 58.5572 19.8252 58.8939C19.8252 59.2307 19.954 59.554 20.1838 59.7941C20.4137 60.0343 20.7261 60.172 21.0539 60.1776H43.5551C43.8858 60.1821 44.2048 60.0518 44.4421 59.8151C44.6794 59.5784 44.8157 59.2547 44.8212 58.915C44.8266 58.5752 44.7007 58.2471 44.4711 58.0025C44.2415 57.758 43.9268 57.6169 43.5962 57.6103C43.5825 57.61 43.5688 57.61 43.5551 57.6103H21.0539Z" fill="#E6E6E6"/>
<path d="M21.0539 64.3029C20.7261 64.3085 20.4137 64.4463 20.1838 64.6864C19.954 64.9265 19.8252 65.2498 19.8252 65.5866C19.8252 65.9234 19.954 66.2467 20.1838 66.4868C20.4137 66.7269 20.7261 66.8646 21.0539 66.8702H43.5551C43.8858 66.8748 44.2048 66.7444 44.4421 66.5077C44.6794 66.271 44.8157 65.9474 44.8212 65.6076C44.8266 65.2678 44.7007 64.9397 44.4711 64.6952C44.2415 64.4506 43.9268 64.3095 43.5962 64.3029C43.5825 64.3027 43.5688 64.3027 43.5551 64.3029H21.0539Z" fill="#E6E6E6"/>
<path d="M13.0123 34.5056C12.5551 34.5056 12.1083 34.3664 11.7282 34.1054C11.3481 33.8445 11.0518 33.4736 10.8769 33.0397C10.7019 32.6057 10.6562 32.1282 10.7453 31.6676C10.8345 31.2069 11.0547 30.7838 11.3779 30.4517C11.7012 30.1195 12.113 29.8934 12.5614 29.8017C13.0097 29.7101 13.4745 29.7571 13.8968 29.9369C14.3191 30.1166 14.6801 30.421 14.9341 30.8115C15.1881 31.202 15.3236 31.6612 15.3236 32.1309C15.3229 32.7605 15.0792 33.3641 14.6459 33.8093C14.2126 34.2545 13.6251 34.5049 13.0123 34.5056V34.5056ZM13.0123 30.1879C12.6383 30.1879 12.2726 30.3018 11.9616 30.5153C11.6507 30.7288 11.4083 31.0323 11.2651 31.3873C11.122 31.7424 11.0845 32.133 11.1575 32.5099C11.2305 32.8868 11.4106 33.233 11.6751 33.5048C11.9395 33.7765 12.2765 33.9616 12.6433 34.0365C13.0102 34.1115 13.3904 34.073 13.736 33.926C14.0815 33.7789 14.3769 33.5299 14.5847 33.2103C14.7925 32.8908 14.9034 32.5152 14.9034 32.1309C14.9028 31.6157 14.7034 31.1219 14.3489 30.7576C13.9943 30.3934 13.5137 30.1885 13.0123 30.1879Z" fill="#E6E6E6"/>
<path d="M13.0123 41.198C12.5551 41.198 12.1083 41.0587 11.7282 40.7978C11.3481 40.5369 11.0518 40.166 10.8769 39.732C10.7019 39.2981 10.6562 38.8206 10.7453 38.36C10.8345 37.8993 11.0547 37.4762 11.3779 37.144C11.7012 36.8119 12.113 36.5857 12.5614 36.4941C13.0097 36.4025 13.4745 36.4495 13.8968 36.6293C14.3191 36.809 14.6801 37.1134 14.9341 37.5039C15.1881 37.8944 15.3236 38.3536 15.3236 38.8233C15.3229 39.4529 15.0792 40.0565 14.6459 40.5017C14.2126 40.9469 13.6251 41.1973 13.0123 41.198V41.198ZM13.0123 36.8803C12.6383 36.8803 12.2726 36.9942 11.9616 37.2077C11.6507 37.4212 11.4083 37.7247 11.2651 38.0797C11.122 38.4347 11.0845 38.8254 11.1575 39.2023C11.2305 39.5792 11.4106 39.9254 11.6751 40.1972C11.9395 40.4689 12.2765 40.6539 12.6433 40.7289C13.0102 40.8039 13.3904 40.7654 13.736 40.6183C14.0815 40.4713 14.3769 40.2222 14.5847 39.9027C14.7925 39.5832 14.9034 39.2075 14.9034 38.8233C14.9028 38.3081 14.7034 37.8143 14.3489 37.45C13.9943 37.0857 13.5137 36.8808 13.0123 36.8803Z" fill="#E6E6E6"/>
<path d="M13.0123 47.8838C12.5551 47.8838 12.1083 47.7445 11.7282 47.4836C11.3481 47.2226 11.0518 46.8518 10.8769 46.4178C10.7019 45.9839 10.6562 45.5064 10.7453 45.0458C10.8345 44.5851 11.0547 44.1619 11.3779 43.8298C11.7012 43.4977 12.113 43.2715 12.5614 43.1799C13.0097 43.0883 13.4745 43.1353 13.8968 43.315C14.3191 43.4948 14.6801 43.7992 14.9341 44.1897C15.1881 44.5802 15.3236 45.0394 15.3236 45.509C15.3229 46.1387 15.0792 46.7423 14.6459 47.1875C14.2126 47.6327 13.6251 47.8831 13.0123 47.8838V47.8838ZM13.0123 43.5661C12.6383 43.5661 12.2726 43.68 11.9616 43.8935C11.6507 44.107 11.4083 44.4105 11.2651 44.7655C11.122 45.1205 11.0845 45.5112 11.1575 45.8881C11.2305 46.265 11.4106 46.6112 11.6751 46.8829C11.9395 47.1547 12.2765 47.3397 12.6433 47.4147C13.0102 47.4897 13.3904 47.4512 13.736 47.3041C14.0815 47.1571 14.3769 46.908 14.5847 46.5885C14.7925 46.269 14.9034 45.8933 14.9034 45.509C14.9028 44.9939 14.7034 44.5 14.3489 44.1358C13.9943 43.7715 13.5137 43.5666 13.0123 43.5661Z" fill="#E6E6E6"/>
<path d="M13.0123 54.5762C12.5551 54.5762 12.1083 54.4369 11.7282 54.176C11.3481 53.915 11.0518 53.5441 10.8769 53.1102C10.7019 52.6763 10.6562 52.1988 10.7453 51.7381C10.8345 51.2775 11.0547 50.8543 11.3779 50.5222C11.7012 50.1901 12.113 49.9639 12.5614 49.8723C13.0097 49.7807 13.4745 49.8277 13.8968 50.0074C14.3191 50.1872 14.6801 50.4915 14.9341 50.8821C15.1881 51.2726 15.3236 51.7317 15.3236 52.2014C15.3229 52.831 15.0792 53.4347 14.6459 53.8799C14.2126 54.3251 13.6251 54.5755 13.0123 54.5762V54.5762ZM13.0123 50.2584C12.6383 50.2584 12.2726 50.3724 11.9616 50.5859C11.6507 50.7994 11.4083 51.1028 11.2651 51.4579C11.122 51.8129 11.0845 52.2036 11.1575 52.5805C11.2305 52.9574 11.4106 53.3036 11.6751 53.5753C11.9395 53.8471 12.2765 54.0321 12.6433 54.1071C13.0102 54.1821 13.3904 54.1436 13.736 53.9965C14.0815 53.8495 14.3769 53.6004 14.5847 53.2809C14.7925 52.9614 14.9034 52.5857 14.9034 52.2014C14.9028 51.6863 14.7034 51.1924 14.3489 50.8282C13.9943 50.4639 13.5137 50.259 13.0123 50.2584Z" fill="#E6E6E6"/>
<path d="M13.0123 61.2688C12.5551 61.2688 12.1083 61.1295 11.7282 60.8686C11.3481 60.6077 11.0518 60.2368 10.8769 59.8028C10.7019 59.3689 10.6562 58.8914 10.7453 58.4308C10.8345 57.9701 11.0547 57.547 11.3779 57.2148C11.7012 56.8827 12.113 56.6565 12.5614 56.5649C13.0097 56.4733 13.4745 56.5203 13.8968 56.7001C14.3191 56.8798 14.6801 57.1842 14.9341 57.5747C15.1881 57.9652 15.3236 58.4244 15.3236 58.8941C15.3229 59.5237 15.0792 60.1273 14.6459 60.5725C14.2126 61.0177 13.6251 61.2681 13.0123 61.2688V61.2688ZM13.0123 56.9511C12.6383 56.9511 12.2726 57.065 11.9616 57.2785C11.6507 57.492 11.4083 57.7955 11.2651 58.1505C11.122 58.5055 11.0845 58.8962 11.1575 59.2731C11.2305 59.65 11.4106 59.9962 11.6751 60.268C11.9395 60.5397 12.2765 60.7247 12.6433 60.7997C13.0102 60.8747 13.3904 60.8362 13.736 60.6891C14.0815 60.5421 14.3769 60.293 14.5847 59.9735C14.7925 59.654 14.9034 59.2783 14.9034 58.8941C14.9028 58.3789 14.7034 57.8851 14.3489 57.5208C13.9943 57.1565 13.5137 56.9516 13.0123 56.9511Z" fill="#E6E6E6"/>
<path d="M13.0123 67.9612C12.5551 67.9612 12.1083 67.8219 11.7282 67.561C11.3481 67.3001 11.0518 66.9292 10.8769 66.4952C10.7019 66.0613 10.6562 65.5838 10.7453 65.1231C10.8345 64.6625 11.0547 64.2393 11.3779 63.9072C11.7012 63.5751 12.113 63.3489 12.5614 63.2573C13.0097 63.1657 13.4745 63.2127 13.8968 63.3924C14.3191 63.5722 14.6801 63.8766 14.9341 64.2671C15.1881 64.6576 15.3236 65.1168 15.3236 65.5864C15.3229 66.2161 15.0792 66.8197 14.6459 67.2649C14.2126 67.7101 13.6251 67.9605 13.0123 67.9612ZM13.0123 63.6435C12.6383 63.6435 12.2726 63.7574 11.9616 63.9709C11.6507 64.1844 11.4083 64.4879 11.2651 64.8429C11.122 65.1979 11.0845 65.5886 11.1575 65.9655C11.2305 66.3424 11.4106 66.6886 11.6751 66.9603C11.9395 67.2321 12.2765 67.4171 12.6433 67.4921C13.0102 67.5671 13.3904 67.5286 13.736 67.3815C14.0815 67.2345 14.3769 66.9854 14.5847 66.6659C14.7925 66.3464 14.9034 65.9707 14.9034 65.5864C14.9028 65.0713 14.7034 64.5774 14.3489 64.2132C13.9943 63.8489 13.5137 63.644 13.0123 63.6435V63.6435Z" fill="#E6E6E6"/>
<path d="M13.0123 33.2101C13.5925 33.2101 14.0629 32.7269 14.0629 32.1307C14.0629 31.5346 13.5925 31.0513 13.0123 31.0513C12.432 31.0513 11.9617 31.5346 11.9617 32.1307C11.9617 32.7269 12.432 33.2101 13.0123 33.2101Z" fill="#3C72FF"/>
<path d="M13.0123 46.5951C13.5925 46.5951 14.0629 46.1119 14.0629 45.5157C14.0629 44.9196 13.5925 44.4363 13.0123 44.4363C12.432 44.4363 11.9617 44.9196 11.9617 45.5157C11.9617 46.1119 12.432 46.5951 13.0123 46.5951Z" fill="#3C72FF"/>
<path d="M13.0123 53.2878C13.5925 53.2878 14.0629 52.8045 14.0629 52.2084C14.0629 51.6122 13.5925 51.1289 13.0123 51.1289C12.432 51.1289 11.9617 51.6122 11.9617 52.2084C11.9617 52.8045 12.432 53.2878 13.0123 53.2878Z" fill="#3C72FF"/>
<path d="M106.652 57.55L106.993 60.174C107.027 60.4395 107.117 60.6941 107.257 60.92C107.398 61.1459 107.584 61.3377 107.803 61.482C108.023 61.6264 108.271 61.7197 108.529 61.7556C108.787 61.7915 109.05 61.7691 109.299 61.6899V61.6899C109.567 61.6047 109.812 61.456 110.014 61.2558C110.216 61.0556 110.369 60.8095 110.462 60.5373C110.554 60.2651 110.583 59.9745 110.546 59.6887C110.509 59.4029 110.408 59.13 110.25 58.8919L108.722 56.5932L105.721 48.4067L108.825 44.2603L105.203 42.6655L102.202 48.0877L106.652 57.55Z" fill="#FFB8B8"/>
<path d="M104.375 42.8782L109.549 44.8982L110.812 41.2931C110.98 40.8144 110.978 40.2901 110.806 39.813C110.634 39.3359 110.303 38.9367 109.872 38.6859V38.6859C109.436 38.4321 108.927 38.3469 108.435 38.4455C107.943 38.5441 107.502 38.8201 107.191 39.2236L104.375 42.8782Z" fill="#6C63FF"/>
<path d="M100.754 93.2731L107.531 93.4428L111.516 66.6936C115.295 73.7669 118.293 83.1935 120.932 93.6984L126.83 92.3162C125.187 81.1369 122.175 71.0607 117.621 62.2283L117.828 56.1681L108.411 54.6797C108.144 54.8077 107.891 54.9636 107.656 55.1451C102.335 59.2161 101.646 77.5482 100.754 93.2731Z" fill="#2F2E41"/>
<path d="M122.484 101.991L124.75 101.7L124.45 98.908C125.369 100.808 126.543 101.637 127.954 101.472C128.286 101.427 128.599 101.285 128.856 101.064C129.112 100.843 129.303 100.551 129.405 100.223C129.425 100.162 129.441 100.099 129.455 100.035C129.502 99.7685 129.455 99.4934 129.323 99.259C129.191 99.0246 128.982 98.8462 128.733 98.7555C127.041 98.0626 126.579 94.9099 126.209 91.572L123.416 92.1036L123.519 94.5489C121.926 96.9196 121.88 99.2916 122.484 101.991Z" fill="#2F2E41"/>
<path d="M102.202 101.991L104.468 101.7L104.168 98.908C105.087 100.808 106.261 101.637 107.672 101.472C108.004 101.427 108.317 101.285 108.574 101.064C108.83 100.843 109.021 100.551 109.122 100.223C109.142 100.162 109.159 100.099 109.173 100.035C109.22 99.7685 109.173 99.4934 109.041 99.259C108.909 99.0246 108.7 98.8462 108.451 98.7555C106.759 98.0626 106.297 94.9099 105.927 91.572L103.134 92.1036L103.237 94.5489C101.644 96.9196 101.598 99.2916 102.202 101.991Z" fill="#2F2E41"/>
<path d="M114.684 37.7005C116.711 37.7005 118.355 36.0122 118.355 33.9295C118.355 31.8468 116.711 30.1584 114.684 30.1584C112.657 30.1584 111.014 31.8468 111.014 33.9295C111.014 36.0122 112.657 37.7005 114.684 37.7005Z" fill="#FFB8B8"/>
<path d="M107.48 41.1771L112.343 40.3266L114.827 36.0739L111.308 33.7349C110.62 36.1811 109.262 38.6667 107.48 41.1771Z" fill="#FFB8B8"/>
<path d="M107.92 55.0476L117.724 57.4438C118.48 51.1385 118.224 45.6227 116.43 41.3086C116.153 40.6523 115.735 40.0695 115.206 39.6046C114.677 39.1396 114.052 38.8048 113.378 38.6255V38.6255L109.239 38.4128C108.313 38.8732 107.557 39.6292 107.083 40.5678C106.61 41.5063 106.445 42.577 106.613 43.6199C108.184 47.8747 109.265 51.9371 107.92 55.0476Z" fill="#3C72FF"/>
<path d="M125.823 53.2595L128.111 54.477C128.342 54.6002 128.597 54.67 128.857 54.6816C129.118 54.6932 129.378 54.6463 129.619 54.5442C129.86 54.442 130.076 54.2871 130.253 54.0901C130.429 53.8932 130.562 53.6591 130.642 53.404V53.404C130.728 53.1295 130.749 52.8382 130.705 52.5534C130.661 52.2687 130.553 51.9985 130.389 51.7647C130.225 51.5308 130.01 51.3398 129.761 51.207C129.512 51.0742 129.236 51.0034 128.955 51.0001L126.246 50.9687L117.997 48.8021L116.47 43.8118L113.122 45.9466L115.726 51.5812L125.823 53.2595Z" fill="#FFB8B8"/>
<path d="M112.817 46.7654L117.394 43.5676L115.243 40.4375C114.957 40.0219 114.538 39.7234 114.058 39.5947C113.579 39.4661 113.071 39.5156 112.624 39.7345C112.172 39.956 111.812 40.3363 111.609 40.8067C111.405 41.2771 111.373 41.8067 111.516 42.2998L112.817 46.7654Z" fill="#3C72FF"/>
<path d="M113.844 33.8944C115.251 33.6888 116.45 33.3165 117.858 33.1109C118.205 33.0602 118.603 32.9739 118.765 32.6541C118.913 32.3594 118.788 32 118.632 31.709C118.23 30.9562 117.64 30.3272 116.923 29.8867C116.206 29.4462 115.387 29.2101 114.552 29.2028C113.716 29.1955 112.894 29.4172 112.169 29.8452C111.445 30.2731 110.844 30.8917 110.43 31.6373C110.059 32.3054 109.84 33.068 109.37 33.6662C109.054 34.0273 108.705 34.3547 108.326 34.6435C105.48 37.0701 103.656 40.5306 103.231 44.3046C103.135 44.9928 103.153 45.6927 103.284 46.3749C103.418 47.062 103.791 47.6755 104.333 48.1013C105.148 48.6946 106.28 48.645 107.198 48.2396C108.956 47.4631 110.054 45.5575 110.372 43.6185C110.69 41.6796 110.346 39.6941 109.92 37.7771C109.764 37.0774 109.598 36.341 109.798 35.6532C110.074 34.6978 111.359 36.2189 112.188 35.7018C112.534 35.4861 112.521 33.1411 112.925 33.1756C113.328 33.2101 113.717 33.6397 113.56 34.0231L113.844 33.8944Z" fill="#2F2E41"/>
<path d="M110.094 35.6321C110.199 35.5644 110.273 35.4568 110.3 35.3331C110.327 35.2093 110.305 35.0795 110.24 34.9722L109.647 34.0068C109.581 33.8995 109.476 33.8235 109.356 33.7955C109.235 33.7675 109.109 33.7898 109.004 33.8575C108.9 33.9252 108.826 34.0328 108.799 34.1566C108.771 34.2803 108.793 34.4102 108.859 34.5175L109.452 35.4829C109.518 35.5901 109.623 35.666 109.743 35.694C109.864 35.722 109.99 35.6997 110.094 35.6321H110.094Z" fill="#6C63FF"/>
<path d="M5.83952 6.52703C6.82593 6.52703 7.62557 5.70545 7.62557 4.69198C7.62557 3.67851 6.82593 2.85693 5.83952 2.85693C4.85311 2.85693 4.05347 3.67851 4.05347 4.69198C4.05347 5.70545 4.85311 6.52703 5.83952 6.52703Z" fill="#E6E6E6"/>
<path d="M11.019 6.52703C12.0054 6.52703 12.805 5.70545 12.805 4.69198C12.805 3.67851 12.0054 2.85693 11.019 2.85693C10.0326 2.85693 9.23291 3.67851 9.23291 4.69198C9.23291 5.70545 10.0326 6.52703 11.019 6.52703Z" fill="#E6E6E6"/>
<path d="M16.1984 6.52703C17.1848 6.52703 17.9845 5.70545 17.9845 4.69198C17.9845 3.67851 17.1848 2.85693 16.1984 2.85693C15.212 2.85693 14.4124 3.67851 14.4124 4.69198C14.4124 5.70545 15.212 6.52703 16.1984 6.52703Z" fill="#E6E6E6"/>
</g>
<defs>
<clipPath id="clip0">
<rect width="201" height="102" fill="white"/>
</clipPath>
</defs>
</svg>
