<svg width="23px" height="23px" viewBox="0 0 23 23" version="1.1"><g id="Active" stroke="none" stroke-width="1" fill="none" fill-rule="evenodd"><g id="Tier-1-Product-Page->-Email-Marketing-Campaign" transform="translate(-217.000000, -1583.000000)"><g id="Group-14" transform="translate(217.000000, 1261.000000)"><g id="Group-52"><g id="Group-11"><g id="Group-34-Copy-5"><g id="Group-25" transform="translate(0.000000, 319.000000)"><g id="Group-32-Copy" transform="translate(0.000000, 3.000000)"><circle id="Oval" fill="#E0FFEF" cx="11.5" cy="11.5" r="11.5"></circle><path d="M13.055317,10.6734115 C12.3274385,11.4141212 10.1456458,13.6343751 10.8735243,12.8936654 C10.8974798,12.8692876 9.659165,11.3466135 9.57439941,11.2603536 C9.40855368,11.0897091 9.15794236,10.9865723 8.92207288,10.9865723 C8.69541705,10.9865723 8.42637842,11.0878339 8.26974635,11.2603536 C8.10942881,11.438499 7.98965134,11.6729008 8.00070772,11.9241795 C8.0117641,12.173583 8.09468697,12.4079848 8.26974635,12.5880054 C8.88521827,13.2162023 9.50069019,13.8425239 10.1143194,14.4707207 C10.199085,14.5569806 10.2856933,14.6451157 10.3704589,14.7313755 C10.7224204,15.0895415 11.3213077,15.0895415 11.6732692,14.7313755 C12.1321091,14.2644471 12.5891062,13.799394 13.047946,13.3324656 C13.7758245,12.5917559 14.5018603,11.8529214 15.2297387,11.1122117 C15.3974272,10.9415671 15.5632729,10.7727978 15.7309614,10.6021533 C15.8986498,10.4315088 16,10.1802301 16,9.93832742 C16,9.70767604 15.9004926,9.43389473 15.7309614,9.27450151 C15.555902,9.11135785 15.3255607,8.98946891 15.0786348,9.0007202 C14.8353944,9.01009627 14.6050532,9.09448092 14.4299938,9.27450151 C13.9711539,9.7414299 13.5141568,10.2064831 13.055317,10.6734115 Z" id="Path" fill="#3DCA81"></path></g></g></g></g></g></g></g></g></svg>
