<svg width="201" height="143" viewBox="0 0 201 143" fill="none" xmlns="http://www.w3.org/2000/svg">
<g clip-path="url(#clip0)">
<path opacity="0.1" d="M197.817 96.1379C193.155 105.697 183.689 112.089 173.879 116.305C160.672 121.982 146.129 124.234 131.785 123.281C129.271 123.115 126.765 122.849 124.267 122.484C115.589 121.226 107.129 118.777 99.1286 115.208C96.8196 114.174 94.5574 113.046 92.3419 111.823C88.6415 109.784 85.096 107.479 81.7337 104.926C80.888 104.285 80.054 103.626 79.2317 102.952C78.6614 102.485 78.0964 102.007 77.5227 101.543C76.312 100.564 75.0663 99.6348 73.6766 98.9389C73.2573 98.7288 72.8275 98.5402 72.3888 98.3738C67.9883 96.71 62.914 97.3378 58.3328 98.6354C54.8482 99.6226 51.4513 100.974 47.9702 101.939C46.4218 102.381 44.844 102.714 43.2486 102.936C39.6866 103.385 36.0693 103.069 32.6404 102.01L32.3474 101.92C31.8561 101.766 31.3689 101.598 30.8858 101.416L30.5928 101.304C30.1249 101.125 29.667 100.932 29.219 100.727L28.9259 100.594C28.4581 100.378 28.0001 100.149 27.5521 99.9086C27.3907 99.8249 27.231 99.7342 27.0731 99.6488C24.5242 98.2337 22.2072 96.4405 20.2021 94.331C20.1442 94.2735 20.0899 94.2142 20.0267 94.1566C19.7477 93.8566 19.474 93.5514 19.209 93.2392C19.1108 93.1241 19.0125 93.009 18.916 92.8904C18.6014 92.509 18.2978 92.1189 18.0054 91.7201C17.9615 91.6626 17.9194 91.6033 17.8773 91.5457C16.6792 89.8981 15.6859 88.1126 14.9191 86.228C14.8945 86.1704 14.8717 86.1111 14.8507 86.0536C14.6167 85.4547 14.4032 84.8461 14.2102 84.2275C14.1313 83.9694 14.0558 83.7043 13.9892 83.4461C13.9663 83.3694 13.9453 83.2909 13.926 83.2142C12.9575 79.4242 12.8469 75.4843 12.8469 71.5671C12.8469 71.1102 12.8469 70.6538 12.8469 70.198C12.875 63.8617 12.9733 57.4173 13.9137 51.1682C13.9137 51.1246 13.926 51.081 13.933 51.0391C14.2478 48.9354 14.6759 46.8499 15.2156 44.7918C15.7804 42.6322 16.5023 40.5163 17.3755 38.4607C19.5389 33.4028 22.6849 28.8002 26.1783 24.5341C34.9775 13.7992 46.5174 4.7875 60.0242 1.41442C74.5785 -2.21853 90.754 1.26268 102.494 10.5535C106.073 13.3859 109.289 16.7398 113.309 18.9112C116.818 20.8018 120.926 21.5849 124.684 20.0972C127.79 18.8676 129.811 18.2571 133.299 18.4437C140.52 18.8498 147.639 20.332 154.417 22.8406C154.691 22.94 154.965 23.0429 155.237 23.1458C172.907 29.8658 188.097 43.2169 195.992 60.3735C196.202 60.827 196.405 61.2839 196.601 61.7444C201.309 72.6746 203.011 85.485 197.817 96.1379Z" fill="#3C72FF"/>
<path opacity="0.1" d="M21.1076 129.584C29.6622 129.584 36.5971 128.477 36.5971 127.111C36.5971 125.745 29.6622 124.638 21.1076 124.638C12.553 124.638 5.61816 125.745 5.61816 127.111C5.61816 128.477 12.553 129.584 21.1076 129.584Z" fill="#3C72FF"/>
<path opacity="0.1" d="M160.064 143C175.232 143 187.528 141.813 187.528 140.349C187.528 138.885 175.232 137.698 160.064 137.698C144.896 137.698 132.599 138.885 132.599 140.349C132.599 141.813 144.896 143 160.064 143Z" fill="#3C72FF"/>
<path d="M184.93 18.7927H22.5692C21.3588 18.7927 20.3777 19.768 20.3777 20.9711V110.504C20.3777 111.707 21.3588 112.683 22.5692 112.683H184.93C186.14 112.683 187.121 111.707 187.121 110.504V20.9711C187.121 19.768 186.14 18.7927 184.93 18.7927Z" fill="url(#paint0_linear)"/>
<path d="M184.684 20.1128H22.8343C21.624 20.1128 20.6428 21.0881 20.6428 22.2912V110.192C20.6428 111.395 21.624 112.37 22.8343 112.37H184.684C185.895 112.37 186.876 111.395 186.876 110.192V22.2912C186.876 21.0881 185.895 20.1128 184.684 20.1128Z" fill="white"/>
<path d="M184.684 20.1128H22.8343C21.624 20.1128 20.6428 21.0881 20.6428 22.2912V110.192C20.6428 111.395 21.624 112.37 22.8343 112.37H184.684C185.895 112.37 186.876 111.395 186.876 110.192V22.2912C186.876 21.0881 185.895 20.1128 184.684 20.1128Z" fill="white"/>
<path opacity="0.04" d="M184.684 20.1128H22.8343C21.624 20.1128 20.6428 21.0881 20.6428 22.2912V110.192C20.6428 111.395 21.624 112.37 22.8343 112.37H184.684C185.895 112.37 186.876 111.395 186.876 110.192V22.2912C186.876 21.0881 185.895 20.1128 184.684 20.1128Z" fill="white"/>
<path d="M186.032 19.0542H21.4868C21.2629 19.0542 21.0483 19.1426 20.89 19.2999C20.7317 19.4572 20.6428 19.6706 20.6428 19.8931V23.4389H186.869V19.8931C186.869 19.6718 186.781 19.4595 186.624 19.3024C186.467 19.1452 186.254 19.056 186.032 19.0542Z" fill="#5A5773"/>
<path d="M23.9623 22.3801C24.5921 22.3801 25.1027 21.8726 25.1027 21.2465C25.1027 20.6204 24.5921 20.1128 23.9623 20.1128C23.3324 20.1128 22.8218 20.6204 22.8218 21.2465C22.8218 21.8726 23.3324 22.3801 23.9623 22.3801Z" fill="white"/>
<path d="M27.0328 22.3801C27.6627 22.3801 28.1733 21.8726 28.1733 21.2465C28.1733 20.6204 27.6627 20.1128 27.0328 20.1128C26.4029 20.1128 25.8923 20.6204 25.8923 21.2465C25.8923 21.8726 26.4029 22.3801 27.0328 22.3801Z" fill="white"/>
<path d="M30.1034 22.3801C30.7332 22.3801 31.2439 21.8726 31.2439 21.2465C31.2439 20.6204 30.7332 20.1128 30.1034 20.1128C29.4735 20.1128 28.9629 20.6204 28.9629 21.2465C28.9629 21.8726 29.4735 22.3801 30.1034 22.3801Z" fill="white"/>
<path opacity="0.2" d="M78.9441 31.6851H34.3337V35.4488H78.9441V31.6851Z" fill="#3C72FF"/>
<path opacity="0.1" d="M173.185 46.7766H34.3337V104.674H173.185V46.7766Z" fill="#5A5773"/>
<path opacity="0.1" d="M115.632 50.5526H113.255V45.9621C113.255 40.7821 109.1 36.476 103.889 36.3975C102.632 36.3844 101.386 36.6186 100.221 37.0866C99.0554 37.5546 97.995 38.2472 97.1004 39.1245C96.2058 40.0017 95.4947 41.0463 95.0081 42.198C94.5214 43.3496 94.2689 44.5857 94.2651 45.8348V50.5526H91.8929C90.8445 50.5558 89.84 50.9712 89.0987 51.7081C88.3574 52.4449 87.9395 53.4434 87.9363 54.4855V73.3601C87.9395 74.4022 88.3574 75.4007 89.0987 76.1375C89.84 76.8744 90.8445 77.2898 91.8929 77.293H115.632C116.681 77.2898 117.685 76.8743 118.426 76.1374C119.167 75.4005 119.584 74.402 119.587 73.3601V54.4855C119.584 53.4436 119.167 52.4451 118.426 51.7082C117.685 50.9712 116.681 50.5558 115.632 50.5526ZM105.149 62.8223V69.5824C105.151 69.9403 105.016 70.2858 104.772 70.5487C104.528 70.8117 104.192 70.9725 103.833 70.9986C103.645 71.0073 103.458 70.9781 103.282 70.9128C103.106 70.8475 102.946 70.7475 102.81 70.6187C102.674 70.4899 102.566 70.335 102.492 70.1635C102.418 69.992 102.38 69.8073 102.38 69.6207V62.8188C101.738 62.5076 101.221 61.9894 100.914 61.3487C100.606 60.708 100.526 59.9826 100.687 59.2909C100.848 58.5993 101.239 57.9821 101.798 57.5402C102.357 57.0983 103.05 56.8577 103.764 56.8577C104.479 56.8577 105.172 57.0983 105.73 57.5402C106.289 57.9821 106.681 58.5993 106.842 59.2909C107.002 59.9826 106.922 60.708 106.615 61.3487C106.307 61.9894 105.791 62.5076 105.149 62.8188V62.8223ZM110.49 50.5526H97.0338V45.8348C97.0338 44.0618 97.7424 42.3614 99.0036 41.1077C100.265 39.854 101.975 39.1497 103.759 39.1497C105.543 39.1497 107.253 39.854 108.515 41.1077C109.776 42.3614 110.484 44.0618 110.484 45.8348L110.49 50.5526Z" fill="black"/>
<path d="M115.632 50.2037H113.255V45.6132C113.255 40.4333 109.1 36.1271 103.889 36.0486C102.632 36.0355 101.386 36.2697 100.221 36.7377C99.0554 37.2057 97.995 37.8983 97.1004 38.7756C96.2058 39.6528 95.4947 40.6974 95.0081 41.8491C94.5214 43.0008 94.2689 44.2368 94.2651 45.4859V50.2037H91.8929C90.8445 50.2069 89.84 50.6223 89.0987 51.3592C88.3574 52.096 87.9395 53.0945 87.9363 54.1366V73.0112C87.9395 74.0533 88.3574 75.0518 89.0987 75.7886C89.84 76.5255 90.8445 76.9409 91.8929 76.9441H115.632C116.681 76.9409 117.685 76.5255 118.426 75.7885C119.167 75.0516 119.584 74.0531 119.587 73.0112V54.1366C119.584 53.0947 119.167 52.0962 118.426 51.3593C117.685 50.6224 116.681 50.2069 115.632 50.2037V50.2037ZM105.149 62.4734V69.2335C105.151 69.5914 105.016 69.9369 104.772 70.1998C104.528 70.4628 104.192 70.6236 103.833 70.6497C103.645 70.6584 103.458 70.6293 103.282 70.564C103.106 70.4986 102.946 70.3986 102.81 70.2698C102.674 70.141 102.566 69.9861 102.492 69.8146C102.418 69.6431 102.38 69.4584 102.38 69.2719V62.4699C101.738 62.1587 101.221 61.6405 100.914 60.9998C100.606 60.3591 100.526 59.6337 100.687 58.942C100.848 58.2504 101.239 57.6332 101.798 57.1913C102.357 56.7494 103.05 56.5088 103.764 56.5088C104.479 56.5088 105.172 56.7494 105.73 57.1913C106.289 57.6332 106.681 58.2504 106.842 58.942C107.002 59.6337 106.922 60.3591 106.615 60.9998C106.307 61.6405 105.791 62.1587 105.149 62.4699V62.4734ZM110.49 50.2037H97.0338V45.4859C97.0338 43.7129 97.7424 42.0125 99.0036 40.7588C100.265 39.5051 101.975 38.8008 103.759 38.8008C105.543 38.8008 107.253 39.5051 108.515 40.7588C109.776 42.0125 110.484 43.7129 110.484 45.4859L110.49 50.2037Z" fill="#3C72FF"/>
<path opacity="0.1" d="M173.185 41.2043H159.13V44.5024H173.185V41.2043Z" fill="#5A5773"/>
<path d="M177.967 141.148C177.875 140.685 177.717 140.238 177.497 139.82L175.392 136.695H175.404C175.404 136.695 175.072 135.125 175.404 134.354C175.736 133.584 174.221 131.688 174.221 131.688C174.221 131.688 174.037 131.212 174.518 130.626C174.999 130.04 174.221 128.323 174.221 128.323C174.221 128.323 173.853 124.739 173.816 124.192C173.779 123.644 173.483 120.609 173.483 120.609L172.781 114.175L171.532 97.1233L171.509 96.8041C171.663 96.7291 171.746 96.682 171.746 96.682L171.497 87.2535L171.712 87.0599C173.597 85.3646 177.943 81.4404 177.899 81.3549C177.855 81.2695 177.373 74.8024 177.317 73.1839C177.268 72.0336 177.015 70.9011 176.569 69.8387C176.46 69.6242 176.146 68.2097 176.016 67.6115C175.981 67.4475 175.958 67.3446 175.958 67.3446C175.958 67.3446 174.685 64.9308 174.795 63.8338C174.906 62.7367 175.127 61.9153 172.411 61.5316C172.411 61.5316 170.13 61.1932 168.772 60.2706C167.969 59.7179 167.091 59.2811 166.164 58.973C166.164 58.973 165.403 57.5777 164.873 58.0504C164.649 57.5525 164.481 57.0313 164.373 56.4964L164.357 56.3987C165.363 55.7015 166.087 54.6717 166.4 53.493C166.417 53.4268 166.431 53.3587 166.447 53.2925C166.5 53.3102 166.554 53.3202 166.61 53.3221C167.072 53.3221 167.356 52.8111 167.787 52.6489C167.963 52.5809 168.179 52.5704 168.314 52.4326C168.358 52.3795 168.392 52.318 168.411 52.2517C168.431 52.1855 168.437 52.1159 168.43 52.0472C168.434 51.9996 168.434 51.9517 168.43 51.9042C168.43 51.8873 168.43 51.8704 168.43 51.8536V51.871C168.312 51.2362 167.817 50.6728 167.872 50.0275C167.924 49.4206 168.461 48.8869 168.417 48.2956C168.417 48.2489 168.413 48.2022 168.405 48.1561V48.177C168.34 47.9462 168.219 47.7344 168.054 47.5596C167.865 47.3038 167.617 47.0969 167.331 46.9562C167.087 46.8498 166.805 46.8254 166.577 46.698C165.906 46.3353 165.908 45.39 165.51 44.7447C165.339 44.4753 165.097 44.258 164.81 44.1167C164.523 43.9754 164.202 43.9157 163.883 43.9441C163.385 43.993 162.934 44.2563 162.441 44.3418C161.767 44.4604 161.081 44.2424 160.443 43.993C159.804 43.7435 159.157 43.4697 158.471 43.4697C157.785 43.4697 157.042 43.8185 156.835 44.4621C156.725 44.8109 156.779 45.1859 156.695 45.54C156.544 46.1644 155.993 46.6108 155.423 46.9213C155.072 47.1149 154.654 47.3364 154.546 47.7026C154.546 47.6922 154.546 47.6835 154.546 47.6747C154.538 47.704 154.532 47.7337 154.528 47.7637C154.524 47.8026 154.524 47.8417 154.528 47.8805C154.528 48.1317 154.661 48.3706 154.751 48.6096C154.918 49.0642 154.914 49.5632 154.74 50.0153C154.61 50.3467 154.389 50.638 154.263 50.9676C154.204 51.1211 154.165 51.2818 154.147 51.4455V51.4176C154.143 51.4919 154.143 51.5665 154.147 51.6408C154.145 51.8955 154.205 52.1469 154.323 52.3733C154.403 52.5297 154.514 52.6684 154.65 52.7813C154.785 52.8942 154.942 52.9791 155.111 53.0309C155.461 53.1111 155.681 52.7692 156.051 52.8564C156.117 52.8723 156.182 52.8927 156.246 52.9175C156.258 52.996 156.27 53.0745 156.284 53.1512C156.508 54.325 157.137 55.3842 158.063 56.1458C158.063 56.1877 158.078 56.2295 158.083 56.2731C158.195 56.9685 158.244 57.6724 158.228 58.3765C158.228 58.3765 157.676 57.5725 156.918 59.1247C156.918 59.1247 154.94 60.2584 154.258 60.3874C153.575 60.5165 151.152 61.3554 151.152 61.3554C150.787 61.6181 150.347 61.7591 149.896 61.7583C149.14 61.7583 148.512 63.403 148.603 64.2977C148.694 65.1924 148.548 65.8517 147.845 65.8883C147.141 65.9249 147.525 67.3429 147.531 67.3673L147.466 67.6725C147.329 68.2969 147.031 69.6364 146.925 69.8457C146.479 70.9081 146.226 72.0406 146.176 73.1908C146.122 74.8094 145.65 81.252 145.595 81.3619C145.559 81.4334 148.536 84.1385 150.629 86.0291L150.933 86.3012L149.97 95.2449C149.998 95.5895 150.101 95.9239 150.272 96.225C150.442 96.5262 150.677 96.7868 150.959 96.989C150.959 97.0936 150.959 97.2 150.949 97.3099C150.907 98.3564 150.822 99.6226 150.654 99.954C150.359 100.54 150.433 103.683 150.433 103.683C150.433 103.683 150.136 110.08 149.768 110.776C149.399 111.472 149.324 112.932 149.434 113.218C149.545 113.504 149.064 121.187 149.064 121.187L148.696 124.624C148.696 124.624 148.806 127.914 148.473 127.987C148.14 128.06 147.955 130.327 147.955 130.327C147.955 130.327 146.774 131.935 147.29 132.52C147.806 133.104 147.215 133.362 147.16 133.507C147.106 133.652 146.034 134.204 146.81 136.249C146.817 136.269 146.825 136.289 146.834 136.308C146.108 137.311 143.806 140.546 143.946 141.038C144.05 141.351 144.269 141.613 144.56 141.77C145.102 142.093 146.032 142.243 147.511 141.77C149.968 140.984 149.792 140.417 149.792 140.417C149.805 140.152 149.919 139.902 150.112 139.718C150.305 139.534 150.561 139.431 150.828 139.43C151.843 139.357 152.601 138.425 152.601 138.425L152.482 137.984L152.319 137.373C152.338 137.199 152.463 136.894 153.021 136.725C153.872 136.468 153.649 134.86 153.649 134.86C153.649 134.86 153.575 133.179 153.944 132.959C154.312 132.739 154.167 129.961 154.167 129.961C154.167 129.961 154.574 127.95 155.163 126.597C155.753 125.243 156.458 117.203 156.458 117.203C156.458 117.203 156.937 113.254 157.381 112.121C157.825 110.987 158.232 107.808 158.232 107.808C158.232 107.808 160.967 102.542 161.002 101.372C161.002 101.372 161.353 100.275 161.704 101.482C162.055 102.689 163.041 105.577 163.041 105.577L164.001 109.123L165.147 114.423L165.887 118.884C165.887 118.884 165.775 120.566 166.063 121.152C166.35 121.738 166.764 123.088 166.543 123.344C166.322 123.6 166.986 124.807 167.172 125.062C167.358 125.317 167.172 130.728 167.172 130.728C167.172 130.728 168.021 135.335 169.24 136.135C169.325 136.191 169.416 136.237 169.51 136.275C169.493 136.774 169.475 137.442 169.498 137.79C169.495 137.868 169.509 137.946 169.537 138.019C169.647 138.165 170.904 139.152 171.163 139.152C171.423 139.152 172.344 139.793 172.383 140.103C172.421 140.413 175.083 141.728 175.46 141.767C175.837 141.805 177.666 142.131 177.917 141.62C177.979 141.471 177.996 141.307 177.967 141.148ZM171.428 75.2698L171.618 75.432C171.618 75.432 171.812 76.9406 171.951 77.3924C172.09 77.8441 171.923 78.7231 171.923 78.7231C171.936 79.0512 172.001 79.3751 172.118 79.6823C172.283 80.012 171.784 80.7288 171.784 80.7288H171.34L171.202 75.0814L171.428 75.2698ZM158.228 58.4079V58.3748C158.225 58.3852 158.223 58.3974 158.223 58.4079H158.228ZM151.412 80.148C151.344 80.0019 151.334 79.8355 151.384 79.6823C151.423 79.5996 151.454 79.5131 151.477 79.4242C151.531 79.1951 151.565 78.9617 151.579 78.7266C151.579 78.7237 151.579 78.7208 151.579 78.7179C151.563 78.6341 151.421 77.8249 151.552 77.3958C151.684 76.9668 151.884 75.4355 151.884 75.4355L152.01 75.3291L152.303 75.0762C152.303 75.0762 152.303 74.982 152.324 74.8268C152.386 76.1523 152.435 77.6173 152.356 77.6906C152.208 77.8354 151.672 79.2603 151.801 79.3161C151.843 79.3353 151.786 79.9056 151.687 80.673C151.577 80.5082 151.485 80.3323 151.412 80.148V80.148Z" fill="url(#paint1_linear)"/>
<path d="M165.554 59.8014V61.9711L161.076 64.2087C161.076 64.2087 156.63 61.535 157.727 60.4711C158.429 59.7979 158.293 57.9492 158.104 56.6777C157.993 55.9382 157.865 55.3958 157.865 55.3958C157.865 55.3958 165.852 53.1285 164.645 54.8499C164.241 55.4255 164.21 56.1702 164.345 56.908C164.619 58.3712 165.554 59.8014 165.554 59.8014Z" fill="#C37098"/>
<path d="M153.287 81.0183L152.71 88.0854C152.71 88.0854 151.845 87.3057 150.726 86.2907C148.65 84.4088 145.702 81.7177 145.737 81.6462C145.792 81.5363 146.264 75.125 146.315 73.5135C146.363 72.3696 146.613 71.243 147.055 70.1857C147.16 69.9764 147.457 68.6439 147.581 68.0213C147.624 67.8277 147.65 67.7021 147.65 67.7021L148.618 67.3149C148.618 67.3149 152.654 71.7903 152.654 71.8723C152.654 71.9542 152.378 75.3918 152.378 75.3918L152.092 75.6395L151.968 75.7459C151.968 75.7459 151.775 77.2476 151.638 77.6975C151.501 78.1475 151.649 78.9289 151.664 79.0126C151.651 79.2476 151.618 79.481 151.564 79.7102C151.541 79.7984 151.51 79.8842 151.471 79.9666C151.422 80.1193 151.432 80.2848 151.499 80.4305C151.577 80.6327 151.679 80.8253 151.801 81.0043L153.287 81.0183Z" fill="#3F3D56"/>
<path d="M177.745 81.6463C177.787 81.7318 173.483 85.6368 171.618 87.3233L170.772 88.0855L170.2 81.0184H171.683C171.683 81.0184 172.177 80.3086 172.012 79.9807C171.897 79.675 171.833 79.3528 171.821 79.0267C171.821 79.0267 171.984 78.1546 171.848 77.7029C171.711 77.2512 171.518 75.7513 171.518 75.7513L171.33 75.5908L171.107 75.3972C171.107 75.3972 170.832 71.9596 170.832 71.8776C170.832 71.7957 174.867 67.3203 174.867 67.3203L175.829 67.7023C175.829 67.7023 175.85 67.8052 175.885 67.9691C176.015 68.5639 176.325 69.9713 176.432 70.1859C176.874 71.2432 177.125 72.3697 177.173 73.5136C177.218 75.1251 177.689 81.5364 177.745 81.6463Z" fill="#3F3D56"/>
<path d="M177.762 141.633C177.504 142.142 175.694 141.807 175.32 141.779C174.946 141.751 172.307 140.431 172.27 140.122C172.234 139.814 171.319 139.177 171.063 139.177C170.807 139.177 169.563 138.193 169.453 138.049C169.425 137.976 169.412 137.899 169.416 137.822C169.377 137.224 169.453 135.684 169.453 135.684L174.76 135.975L177.339 139.831C177.557 140.247 177.714 140.692 177.806 141.151C177.837 141.313 177.822 141.48 177.762 141.633V141.633Z" fill="#3F3D56"/>
<path opacity="0.1" d="M177.762 141.633C177.504 142.142 175.694 141.807 175.32 141.779C174.946 141.751 172.307 140.431 172.27 140.122C172.234 139.814 171.319 139.177 171.063 139.177C170.807 139.177 169.563 138.193 169.453 138.049C169.425 137.976 169.412 137.899 169.416 137.822C169.377 137.224 169.453 135.684 169.453 135.684L174.76 135.975L177.339 139.831C177.557 140.247 177.714 140.692 177.806 141.151C177.837 141.313 177.822 141.48 177.762 141.633V141.633Z" fill="black"/>
<path opacity="0.1" d="M177.762 141.633C177.504 142.142 175.694 141.807 175.32 141.779C174.946 141.751 172.307 140.431 172.27 140.122C172.234 139.814 171.319 139.177 171.063 139.177C170.807 139.177 169.563 138.193 169.453 138.049C169.425 137.976 169.412 137.899 169.416 137.822L171.135 138.903C171.135 138.903 172.234 139.601 172.527 140.014C172.82 140.427 175.129 141.287 175.32 141.305C175.462 141.319 176.978 141.029 177.806 141.151C177.837 141.313 177.822 141.479 177.762 141.633V141.633Z" fill="black"/>
<path d="M152.672 138.45C152.672 138.45 151.921 139.377 150.917 139.449C150.652 139.451 150.398 139.554 150.208 139.737C150.017 139.919 149.904 140.168 149.892 140.431C149.892 140.431 150.068 140.996 147.641 141.779C146.176 142.248 145.255 142.1 144.718 141.779C144.43 141.621 144.213 141.361 144.109 141.05C143.944 140.469 147.183 136.048 147.183 136.048L150.131 135.874L152.237 136.819L152.559 138.017L152.672 138.45Z" fill="#3F3D56"/>
<path opacity="0.1" d="M152.672 138.45C152.672 138.45 151.921 139.377 150.917 139.449C150.652 139.451 150.398 139.554 150.208 139.737C150.017 139.919 149.904 140.168 149.892 140.431C149.892 140.431 150.068 140.996 147.641 141.779C146.176 142.248 145.255 142.1 144.718 141.779C144.43 141.621 144.213 141.361 144.109 141.05C143.944 140.469 147.183 136.048 147.183 136.048L150.131 135.874L152.237 136.819L152.559 138.017L152.672 138.45Z" fill="black"/>
<path opacity="0.1" d="M152.672 138.45C152.672 138.45 151.921 139.378 150.917 139.449C150.652 139.451 150.398 139.554 150.208 139.737C150.017 139.92 149.904 140.168 149.893 140.431C149.893 140.431 150.068 140.996 147.641 141.779C146.176 142.248 145.255 142.1 144.718 141.779C146.099 141.636 149.15 140.769 149.456 140.469C149.822 140.105 150.28 139.104 150.591 139.086C150.807 139.072 151.903 138.417 152.561 138.01L152.672 138.45Z" fill="black"/>
<path d="M175.273 134.393C174.943 135.157 175.273 136.721 175.273 136.721C175.273 136.721 170.36 136.976 169.16 136.175C167.96 135.375 167.11 130.79 167.11 130.79C167.11 130.79 167.286 125.406 167.11 125.151C166.935 124.896 166.268 123.696 166.487 123.442C166.707 123.187 166.312 121.841 166.012 121.258C165.712 120.676 165.836 119.003 165.836 119.003L165.103 114.563L163.97 109.288L163.006 105.758C163.006 105.758 162.018 102.884 161.683 101.684C161.348 100.484 160.994 101.574 160.994 101.574C160.959 102.739 158.25 107.979 158.25 107.979C158.25 107.979 157.846 111.144 157.407 112.271C156.969 113.398 156.492 117.329 156.492 117.329C156.492 117.329 155.79 125.332 155.211 126.679C154.632 128.025 154.233 130.026 154.233 130.026C154.233 130.026 154.381 132.792 154.014 133.01C153.647 133.228 153.707 134.902 153.707 134.902C153.707 134.902 153.926 136.502 153.084 136.758C152.242 137.014 152.382 137.558 152.382 137.558C152.382 137.558 147.698 138.322 146.929 136.284C146.161 134.245 147.222 133.702 147.28 133.556C147.338 133.409 147.922 133.156 147.41 132.572C146.897 131.988 148.068 130.39 148.068 130.39C148.068 130.39 148.252 128.135 148.58 128.062C148.908 127.989 148.801 124.715 148.801 124.715L149.166 121.295C149.166 121.295 149.643 113.654 149.533 113.363C149.422 113.071 149.496 111.619 149.863 110.921C150.229 110.223 150.521 103.861 150.521 103.861C150.521 103.861 150.447 100.734 150.74 100.151C150.915 99.8215 150.989 98.5535 151.031 97.5193C151.063 96.7292 151.07 96.0752 151.07 96.0752L155.169 94.5473L160.432 92.8748L164.861 94.9851L171.341 96.2217L171.421 97.3327L172.658 114.304L173.36 120.707C173.36 120.707 173.653 123.726 173.69 124.272C173.727 124.818 174.092 128.385 174.092 128.385C174.092 128.385 174.86 130.094 174.385 130.676C173.909 131.259 174.092 131.723 174.092 131.723C174.092 131.723 175.602 133.629 175.273 134.393Z" fill="#3F3D56"/>
<path opacity="0.1" d="M164.649 54.85C164.245 55.4255 164.213 56.1703 164.349 56.908C163.427 57.5546 162.316 57.8822 161.189 57.8402C160.061 57.7983 158.978 57.3893 158.108 56.676V56.676C157.997 55.9365 157.869 55.3941 157.869 55.3941C157.869 55.3941 165.856 53.1303 164.649 54.85Z" fill="black"/>
<path d="M166.515 52.6244C166.515 53.6351 166.214 54.6231 165.649 55.4635C165.084 56.3039 164.281 56.9588 163.342 57.3456C162.402 57.7324 161.369 57.8336 160.371 57.6364C159.374 57.4392 158.458 56.9525 157.739 56.2379C157.02 55.5232 156.531 54.6126 156.332 53.6214C156.134 52.6301 156.236 51.6026 156.625 50.6688C157.014 49.7351 157.673 48.937 158.518 48.3754C159.364 47.8139 160.358 47.5142 161.374 47.5142C162.05 47.511 162.72 47.641 163.346 47.8966C163.971 48.1523 164.539 48.5286 165.017 49.0038C165.495 49.4789 165.873 50.0435 166.131 50.665C166.388 51.2865 166.519 51.9524 166.515 52.6244Z" fill="#C37098"/>
<path opacity="0.1" d="M167.586 61.1166L165.901 90.9319L156.751 89.0221L154.939 77.0698L156.734 61.0242L158.085 61.1968L160.467 61.4986L162.827 61.6433L165.386 61.3608L167.586 61.1166Z" fill="black"/>
<path d="M167.586 61.3346L165.901 91.1499L156.751 89.2401L154.939 77.2878L156.734 61.2439L158.085 61.4148L160.467 61.7165L162.827 61.8613L165.386 61.5788L167.586 61.3346Z" fill="white"/>
<path d="M160.064 62.135L163.359 62.2449L162.432 63.5338C162.432 63.5338 162.497 66.1377 162.938 66.8842C163.378 67.6306 163.248 79.1626 163.248 79.1626L162.371 80.8177L160.871 78.962L160.89 63.7361L160.064 62.135Z" fill="#3F3D56"/>
<path opacity="0.1" d="M160.064 62.135L163.359 62.2449L162.432 63.5338C162.432 63.5338 162.497 66.1377 162.938 66.8842C163.378 67.6306 163.248 79.1626 163.248 79.1626L162.371 80.8177L160.871 78.962L160.89 63.7361L160.064 62.135Z" fill="black"/>
<path opacity="0.1" d="M165.224 58.7515L162.15 62.135L163.906 63.9541L166.817 61.1339L165.224 58.7515Z" fill="black"/>
<path d="M165.224 58.5334L162.15 61.917L163.906 63.7361L166.817 60.9159L165.224 58.5334Z" fill="white"/>
<path opacity="0.1" d="M160.851 61.9712L157.739 58.8789L157.446 60.4974L158.874 64.0449L160.851 61.9712Z" fill="black"/>
<path d="M160.96 61.7532L157.849 58.6609L157.556 60.2794L158.985 63.8269L160.96 61.7532Z" fill="white"/>
<path opacity="0.1" d="M171.437 97.338C169.943 98.0456 168.343 98.5057 166.7 98.7002C163.68 99.0821 161.704 95.2626 161.704 95.2626L160.552 96.7538C160.185 98.3374 154.604 98.7368 152.335 98.1368C151.864 98.0212 151.421 97.8131 151.033 97.5247C151.065 96.7346 151.072 96.0805 151.072 96.0805L155.17 94.5527L160.434 92.8801L164.863 94.9905L171.342 96.227L171.437 97.338Z" fill="black"/>
<path opacity="0.1" d="M167.586 61.3363L165.903 91.1499L156.751 89.2401L154.935 77.2896L156.728 61.2439L158.079 61.4183C158.045 62.0028 157.979 62.585 157.881 63.1624C157.662 64.1827 159.016 71.4224 159.016 71.4224C159.016 71.4224 161.59 79.5412 162.748 78.3709C163.906 77.2006 165.556 71.0213 165.556 71.0213C166.673 68.7295 165.575 62.3008 165.492 62.1718C165.435 61.9816 165.4 61.7856 165.387 61.5875L167.586 61.3363Z" fill="black"/>
<path opacity="0.1" d="M171.539 84.4073L171.616 87.3287L170.77 88.0908L170.2 81.0186H171.463L171.539 84.4073Z" fill="black"/>
<path opacity="0.1" d="M151.666 79.0181C151.653 79.253 151.62 79.4865 151.566 79.7157C151.566 79.6511 151.566 79.6145 151.552 79.6093C151.5 79.5953 151.563 79.3285 151.666 79.0181Z" fill="black"/>
<path opacity="0.1" d="M153.288 81.0184L152.71 88.0854C152.71 88.0854 151.845 87.3058 150.726 86.2908L150.859 85.0385C150.859 85.0385 151.331 81.9619 151.503 80.4446C151.581 80.6468 151.682 80.8393 151.805 81.0184H153.288Z" fill="black"/>
<path d="M158.251 58.769C158.251 58.769 157.704 57.9685 156.953 59.5138C156.953 59.5138 154.995 60.6422 154.321 60.7695C153.647 60.8968 151.251 61.734 151.251 61.734C150.889 61.9941 150.453 62.1339 150.007 62.1334C149.256 62.1334 148.633 63.7711 148.724 64.6623C148.815 65.5536 148.67 66.2093 147.975 66.246C147.28 66.2826 147.662 67.718 147.662 67.718L152.293 72.9939C152.293 72.9939 152.586 77.8512 152.44 77.9977C152.295 78.1442 151.763 79.5674 151.891 79.6162C152.019 79.665 151.189 85.0368 151.189 85.0368L150.073 95.4613C150.073 95.4613 150.073 97.2054 152.344 97.8071C154.614 98.4088 160.199 98.0111 160.559 96.4275L161.711 94.9346C161.711 94.9346 163.687 98.7559 166.707 98.3739C169.726 97.992 171.649 96.9002 171.649 96.9002L171.319 84.4072L171.1 75.4025L175.815 67.7023C175.815 67.7023 174.551 65.3007 174.662 64.2141C174.773 63.1275 174.99 62.3043 172.3 61.9224C172.3 61.9224 170.032 61.5857 168.695 60.6666C167.9 60.1182 167.032 59.6837 166.115 59.376C166.115 59.376 165.361 57.9807 164.836 58.4586C164.836 58.4586 165.363 60.4312 165.319 60.7259C165.275 61.0207 165.401 62.3531 165.484 62.4909C165.566 62.6287 166.665 69.0487 165.547 71.3405C165.547 71.3405 163.906 77.5198 162.74 78.6901C161.573 79.8604 159.008 71.7416 159.008 71.7416C159.008 71.7416 157.653 64.5001 157.872 63.4816C158.092 62.463 158.251 58.769 158.251 58.769Z" fill="#3F3D56"/>
<path d="M162.167 82.6196C162.612 82.6196 162.973 82.2612 162.973 81.8191C162.973 81.377 162.612 81.0186 162.167 81.0186C161.723 81.0186 161.362 81.377 161.362 81.8191C161.362 82.2612 161.723 82.6196 162.167 82.6196Z" fill="#3F3D56"/>
<path d="M162.167 86.3938C162.612 86.3938 162.973 86.0354 162.973 85.5933C162.973 85.1511 162.612 84.7927 162.167 84.7927C161.723 84.7927 161.362 85.1511 161.362 85.5933C161.362 86.0354 161.723 86.3938 162.167 86.3938Z" fill="#3F3D56"/>
<path opacity="0.1" d="M162.167 82.6196C162.612 82.6196 162.973 82.2612 162.973 81.8191C162.973 81.377 162.612 81.0186 162.167 81.0186C161.723 81.0186 161.362 81.377 161.362 81.8191C161.362 82.2612 161.723 82.6196 162.167 82.6196Z" fill="black"/>
<path opacity="0.1" d="M162.167 86.3938C162.612 86.3938 162.973 86.0354 162.973 85.5933C162.973 85.1511 162.612 84.7927 162.167 84.7927C161.723 84.7927 161.362 85.1511 161.362 85.5933C161.362 86.0354 161.723 86.3938 162.167 86.3938Z" fill="black"/>
<path opacity="0.1" d="M169.405 133.301C169.405 133.301 172.711 133.556 173.039 133.81C173.367 134.065 169.405 133.301 169.405 133.301Z" fill="black" stroke="#3C72FF" stroke-miterlimit="10"/>
<path opacity="0.1" d="M149.724 130.718C149.724 130.718 150.426 131.59 150.127 131.991C149.829 132.392 149.724 130.718 149.724 130.718Z" fill="black" stroke="#3C72FF" stroke-miterlimit="10"/>
<path opacity="0.1" d="M150.566 133.863C150.566 133.863 151.847 133.026 152.36 133.582C152.872 134.138 150.566 133.863 150.566 133.863Z" fill="black" stroke="#3C72FF" stroke-miterlimit="10"/>
<path opacity="0.1" d="M166.515 52.6245C166.516 53.0605 166.461 53.4949 166.35 53.9169C166.242 53.8678 166.152 53.7871 166.091 53.6855C166.03 53.5839 166.002 53.4662 166.01 53.3483C166.033 53.1408 166.172 52.9506 166.142 52.7448C166.098 52.4274 165.712 52.2984 165.508 52.0472C165.257 51.7437 165.312 51.3025 165.333 50.9101C165.354 50.5176 165.254 50.038 164.884 49.9037C164.773 49.8636 164.652 49.8601 164.545 49.8148C164.254 49.6927 164.164 49.3334 163.97 49.0857C163.58 48.5869 162.806 48.5974 162.215 48.8346C161.958 48.9573 161.694 49.0667 161.425 49.1625C161.291 49.2097 161.148 49.2286 161.006 49.2181C160.863 49.2076 160.725 49.1679 160.599 49.1014C160.483 49.0282 160.39 48.927 160.271 48.8538C159.874 48.6166 159.355 48.8538 159.011 49.159C158.667 49.4642 158.392 49.8741 157.958 50.0607C157.764 50.1479 157.523 50.2002 157.432 50.3886C157.387 50.4911 157.367 50.6031 157.376 50.7147C157.376 51.3932 157.456 52.0821 157.314 52.7466C157.223 53.1739 156.921 53.6587 156.484 53.6064C156.43 53.5984 156.377 53.585 156.325 53.5663C156.193 52.8678 156.21 52.1497 156.373 51.4578C156.537 50.766 156.844 50.1157 157.274 49.5484C157.705 48.9811 158.25 48.5093 158.874 48.1632C159.498 47.8171 160.189 47.6042 160.9 47.5382C161.612 47.4722 162.33 47.5545 163.008 47.7799C163.686 48.0052 164.31 48.3687 164.838 48.847C165.367 49.3253 165.79 49.908 166.079 50.5578C166.368 51.2077 166.518 51.9104 166.519 52.621L166.515 52.6245Z" fill="black"/>
<path d="M156.095 53.2767C156.227 53.3063 156.351 53.3743 156.486 53.3918C156.923 53.4441 157.225 52.9592 157.316 52.5319C157.458 51.8674 157.385 51.1785 157.379 50.5001C157.369 50.3885 157.388 50.2764 157.434 50.1739C157.534 49.9856 157.774 49.9332 157.96 49.846C158.385 49.6577 158.662 49.2565 159.013 48.9443C159.364 48.6322 159.874 48.4019 160.271 48.6391C160.388 48.7089 160.483 48.8135 160.599 48.8868C160.726 48.9522 160.864 48.9914 161.007 49.0019C161.149 49.0124 161.292 48.994 161.427 48.9478C161.699 48.8676 161.953 48.7263 162.215 48.6199C162.801 48.3827 163.576 48.374 163.97 48.8693C164.164 49.1187 164.254 49.4763 164.545 49.5984C164.652 49.6437 164.773 49.649 164.884 49.6891C165.254 49.8269 165.349 50.303 165.333 50.6954C165.317 51.0878 165.264 51.5291 165.508 51.8326C165.712 52.0802 166.098 52.2093 166.142 52.5302C166.17 52.736 166.033 52.9279 166.01 53.1337C166.005 53.2101 166.015 53.2869 166.04 53.3595C166.065 53.4321 166.104 53.499 166.155 53.5565C166.206 53.6139 166.268 53.6607 166.337 53.6941C166.407 53.7275 166.482 53.7469 166.559 53.7511C167.015 53.7511 167.298 53.2435 167.724 53.0813C167.9 53.0133 168.112 53.0028 168.251 52.8651C168.302 52.7988 168.339 52.7223 168.357 52.6406C168.376 52.559 168.377 52.4743 168.359 52.3924C168.274 51.7244 167.735 51.1436 167.793 50.4739C167.847 49.8321 168.445 49.2722 168.319 48.6409C168.255 48.4081 168.134 48.1944 167.968 48.0182C167.78 47.7648 167.535 47.5588 167.252 47.4165C167.008 47.3119 166.726 47.2875 166.503 47.1601C165.84 46.7991 165.842 45.8573 165.45 45.2155C165.282 44.9502 165.044 44.736 164.762 44.5964C164.48 44.4567 164.164 44.3969 163.85 44.4236C163.357 44.4725 162.91 44.7324 162.422 44.8196C161.753 44.9382 161.076 44.7201 160.443 44.4707C159.809 44.2213 159.169 43.9475 158.49 43.9475C157.811 43.9475 157.076 44.2963 156.869 44.9347C156.76 45.2835 156.814 45.6567 156.73 46.0073C156.583 46.6299 156.028 47.0729 155.47 47.3816C155.086 47.5944 154.625 47.8386 154.579 48.2729C154.549 48.5484 154.702 48.7961 154.798 49.0629C154.962 49.5144 154.959 50.0093 154.788 50.4582C154.66 50.7879 154.446 51.0774 154.316 51.4053C154.224 51.6278 154.18 51.8672 154.188 52.1078C154.196 52.3483 154.255 52.5844 154.361 52.8005C154.443 52.9581 154.556 53.0974 154.694 53.2099C154.832 53.3223 154.992 53.4056 155.163 53.4546C155.509 53.5365 155.726 53.1964 156.095 53.2767Z" fill="#3F3D56"/>
<g opacity="0.1">
<path opacity="0.1" d="M157.316 52.152C157.225 52.5793 156.921 53.0641 156.484 53.0118C156.349 52.9944 156.226 52.9263 156.093 52.8967C155.726 52.8165 155.509 53.1583 155.163 53.0711C154.991 53.0222 154.832 52.9389 154.693 52.8265C154.555 52.714 154.442 52.5747 154.359 52.4171C154.268 52.2395 154.212 52.0457 154.196 51.8467C154.161 52.1556 154.218 52.4678 154.359 52.745C154.442 52.9026 154.555 53.0419 154.693 53.1544C154.832 53.2668 154.991 53.3501 155.163 53.399C155.514 53.4792 155.726 53.1374 156.093 53.2246C156.221 53.269 156.352 53.3068 156.484 53.3379C156.921 53.392 157.225 52.9072 157.316 52.4799C157.388 52.1023 157.416 51.7179 157.4 51.334C157.399 51.6087 157.37 51.8826 157.316 52.152V52.152Z" fill="black"/>
<path opacity="0.1" d="M154.912 49.5254C154.934 49.2396 154.895 48.9523 154.796 48.683C154.717 48.5039 154.65 48.3198 154.595 48.1318C154.587 48.1611 154.581 48.1908 154.577 48.2208C154.547 48.4946 154.702 48.744 154.796 49.0109C154.858 49.1765 154.897 49.3495 154.912 49.5254V49.5254Z" fill="black"/>
<path opacity="0.1" d="M168.317 48.6062C168.235 49.1015 167.831 49.5672 167.791 50.0887C167.781 50.178 167.781 50.268 167.791 50.3573C167.879 49.7486 168.421 49.2097 168.317 48.6062Z" fill="black"/>
<path opacity="0.1" d="M168.347 52.2864C168.332 52.3593 168.298 52.4268 168.247 52.4817C168.117 52.6195 167.896 52.63 167.721 52.698C167.294 52.8602 167.019 53.3729 166.556 53.3677C166.437 53.361 166.323 53.3188 166.229 53.2466C166.135 53.1743 166.066 53.0755 166.029 52.9631C166.019 53.0009 166.01 53.0393 166.005 53.0782C166 53.1545 166.01 53.2311 166.035 53.3035C166.06 53.3759 166.099 53.4426 166.15 53.4999C166.201 53.5571 166.263 53.6037 166.332 53.637C166.402 53.6703 166.477 53.6896 166.554 53.6939C167.012 53.6939 167.292 53.1863 167.719 53.0259C167.894 52.9579 168.108 52.9474 168.245 52.8096C168.297 52.7434 168.333 52.6668 168.352 52.5852C168.371 52.5036 168.371 52.4189 168.354 52.337C168.352 52.316 168.349 52.3021 168.347 52.2864Z" fill="black"/>
<path opacity="0.1" d="M166.147 52.1415C166.103 51.8241 165.717 51.695 165.513 51.4439C165.389 51.2789 165.321 51.0782 165.32 50.8718C165.306 51.1962 165.312 51.5276 165.513 51.7718C165.715 52.016 166.022 52.1206 166.12 52.3718C166.145 52.2977 166.154 52.2193 166.147 52.1415V52.1415Z" fill="black"/>
<path opacity="0.1" d="M165.331 50.3154C165.345 49.923 165.25 49.4434 164.88 49.3091C164.771 49.269 164.65 49.2637 164.543 49.2201C164.252 49.0981 164.161 48.7388 163.968 48.4911C163.576 47.994 162.803 48.0028 162.213 48.24C161.95 48.3464 161.699 48.4876 161.425 48.5679C161.291 48.615 161.148 48.6339 161.006 48.6234C160.863 48.6129 160.725 48.5732 160.599 48.5068C160.483 48.4336 160.388 48.3324 160.271 48.2591C159.872 48.0219 159.353 48.2591 159.011 48.5644C158.669 48.8696 158.392 49.2777 157.958 49.4661C157.762 49.5533 157.523 49.6056 157.421 49.7939C157.377 49.8966 157.358 50.0086 157.367 50.1201C157.367 50.1881 157.367 50.2561 157.367 50.3241C157.369 50.2539 157.387 50.1849 157.418 50.1218C157.52 49.9335 157.758 49.8812 157.955 49.7939C158.379 49.6056 158.657 49.2044 159.007 48.8922C159.358 48.5801 159.869 48.3498 160.267 48.587C160.385 48.6568 160.48 48.7614 160.595 48.833C160.721 48.8998 160.86 48.9397 161.002 48.9502C161.144 48.9607 161.287 48.9416 161.422 48.894C161.69 48.7991 161.953 48.6902 162.21 48.5679C162.797 48.3307 163.571 48.3202 163.964 48.8173C164.157 49.0649 164.248 49.4242 164.54 49.5463C164.647 49.5916 164.768 49.5969 164.877 49.637C165.177 49.7486 165.296 50.0835 165.322 50.4148L165.331 50.3154Z" fill="black"/>
</g>
<g opacity="0.1">
<path opacity="0.1" d="M156.69 52.1415C156.7 51.852 156.804 51.5736 156.987 51.3481C157.17 51.1226 157.421 50.9622 157.704 50.891C158.486 50.7008 159.307 50.7378 160.069 50.9973C161.734 51.545 159.858 53.5158 159.858 53.5158C159.858 53.5158 158.611 54.7367 157.448 53.8838C157.104 53.6257 156.864 53.255 156.769 52.8374C156.712 52.6099 156.685 52.3759 156.69 52.1415V52.1415Z" fill="black"/>
<path opacity="0.1" d="M165.843 52.1415C165.833 51.8518 165.729 51.5732 165.545 51.3476C165.362 51.1221 165.11 50.9618 164.827 50.891C164.046 50.7012 163.225 50.7381 162.464 50.9973C160.799 51.545 162.675 53.5158 162.675 53.5158C162.675 53.5158 163.92 54.7367 165.085 53.8838C165.429 53.6257 165.67 53.255 165.764 52.8374C165.821 52.6099 165.848 52.3759 165.843 52.1415Z" fill="black"/>
<path opacity="0.1" d="M159.755 50.837V50.919H162.796V50.8213L159.755 50.837Z" fill="black"/>
<path opacity="0.1" d="M160.725 51.7107H160.822V51.4334C160.822 51.4334 161.131 51.1945 161.643 51.4334V51.6811H161.818V51.5189H161.732C161.732 51.5189 161.768 51.1823 161.196 51.2363C161.196 51.2363 160.736 51.1927 160.746 51.4823H160.641L160.725 51.7107Z" fill="black"/>
</g>
<path d="M156.69 52.028C156.7 51.7385 156.804 51.4601 156.987 51.2346C157.17 51.0091 157.421 50.8487 157.704 50.7775C158.486 50.5886 159.307 50.6256 160.069 50.8839C161.734 51.4333 159.859 53.4023 159.859 53.4023C159.859 53.4023 158.611 54.6232 157.448 53.7703C157.103 53.5128 156.863 53.1418 156.769 52.7239C156.712 52.4964 156.685 52.2624 156.69 52.028V52.028Z" fill="#242424"/>
<path d="M165.843 52.028C165.833 51.7383 165.729 51.4597 165.545 51.2342C165.362 51.0087 165.11 50.8484 164.827 50.7775C164.046 50.5886 163.226 50.6255 162.464 50.8839C160.799 51.4333 162.675 53.4024 162.675 53.4024C162.675 53.4024 163.92 54.6232 165.085 53.7704C165.43 53.5129 165.67 53.1419 165.764 52.7239C165.822 52.4965 165.848 52.2624 165.843 52.028Z" fill="#242424"/>
<path d="M159.755 50.7269V50.8106H162.796V50.7112L159.755 50.7269Z" fill="#242424"/>
<path d="M160.725 51.6008H160.822V51.3235C160.822 51.3235 161.131 51.0863 161.643 51.3235V51.5729H161.818V51.4089H161.732C161.732 51.4089 161.768 51.0741 161.196 51.1264C161.196 51.1264 160.736 51.0845 160.746 51.3723H160.641L160.725 51.6008Z" fill="#242424"/>
<path d="M21.606 79.7383H20.6094V102.045H21.606V79.7383Z" fill="#535461"/>
<path d="M27.8698 101.977L27.8067 102.982L27.7189 104.4L27.6821 104.991L27.5944 106.411L27.5558 107.002L27.468 108.42L26.4626 124.547C26.4198 125.241 26.1122 125.893 25.6026 126.37C25.093 126.846 24.4198 127.111 23.7202 127.111H18.4951C17.7957 127.111 17.1227 126.846 16.6134 126.369C16.1041 125.893 15.7969 125.241 15.7544 124.547L14.7438 108.42L14.656 107.002L14.6192 106.411L14.5332 104.987L14.4964 104.396L14.4086 102.978L14.3455 101.974C14.3335 101.781 14.3614 101.588 14.4274 101.406C14.4934 101.224 14.5962 101.058 14.7293 100.917C14.8625 100.776 15.0232 100.664 15.2016 100.588C15.3801 100.511 15.5724 100.472 15.7667 100.472H26.4504C26.6449 100.472 26.8375 100.511 27.0161 100.588C27.1946 100.665 27.3554 100.777 27.4885 100.918C27.6216 101.06 27.7241 101.226 27.7897 101.408C27.8553 101.591 27.8826 101.784 27.8698 101.977V101.977Z" fill="#3F3D56"/>
<path d="M27.8067 102.982L27.719 104.4H14.4947L14.407 102.982H27.8067Z" fill="#9D9CB5"/>
<path d="M27.6821 104.991L27.5944 106.411H14.621L14.5315 104.991H27.6821Z" fill="#9D9CB5"/>
<path d="M27.5557 107.002L27.4679 108.42H14.7472L14.6577 107.002H27.5557Z" fill="#9D9CB5"/>
<path d="M12.8854 88.0993C18.6895 92.2729 21.1074 98.8028 21.1074 98.8028C21.1074 98.8028 14.1118 98.5639 8.29889 94.3903C2.48595 90.2167 0.0769043 83.6868 0.0769043 83.6868C0.0769043 83.6868 7.07945 83.9257 12.8854 88.0993Z" fill="#3C72FF"/>
<path d="M0.0856934 83.6868C0.0856934 83.6868 7.34617 87.6982 9.6745 91.012C12.0028 94.3257 21.1074 98.8046 21.1074 98.8046" stroke="#535461" stroke-width="2" stroke-miterlimit="10"/>
<path d="M16.6317 79.6982C19.79 81.9656 21.1077 85.5235 21.1077 85.5235C21.1077 85.5235 17.3002 85.3944 14.1402 83.1219C10.9802 80.8493 9.66602 77.2966 9.66602 77.2966C9.66602 77.2966 13.4735 77.417 16.6317 79.6982Z" fill="#3C72FF"/>
<path d="M9.66602 77.2876C9.66602 77.2876 13.6173 79.4677 14.8842 81.2729C16.151 83.078 21.1077 85.5145 21.1077 85.5145" stroke="#535461" stroke-width="2" stroke-miterlimit="10"/>
<path d="M25.6995 85.3349C22.0692 89.2993 21.3025 94.4792 21.3025 94.4792C21.3025 94.4792 26.4189 93.2322 30.0473 89.2679C33.6758 85.3035 34.4443 80.1218 34.4443 80.1218C34.4443 80.1218 29.328 81.3689 25.6995 85.3349Z" fill="#3C72FF"/>
<path d="M34.4443 80.1218C34.4443 80.1218 29.7175 84.1856 28.5156 86.9866C27.3137 89.7876 21.3025 94.4862 21.3025 94.4862" stroke="#535461" stroke-width="2" stroke-miterlimit="10"/>
</g>
<defs>
<linearGradient id="paint0_linear" x1="103.749" y1="112.683" x2="103.749" y2="18.7927" gradientUnits="userSpaceOnUse">
<stop stop-color="#808080" stop-opacity="0.25"/>
<stop offset="0.54" stop-color="#808080" stop-opacity="0.12"/>
<stop offset="1" stop-color="#808080" stop-opacity="0.1"/>
</linearGradient>
<linearGradient id="paint1_linear" x1="32290.2" y1="84315.2" x2="32290.2" y2="28567.9" gradientUnits="userSpaceOnUse">
<stop stop-color="#808080" stop-opacity="0.25"/>
<stop offset="0.54" stop-color="#808080" stop-opacity="0.12"/>
<stop offset="1" stop-color="#808080" stop-opacity="0.1"/>
</linearGradient>
<clipPath id="clip0">
<rect width="201" height="143" fill="white"/>
</clipPath>
</defs>
</svg>
