<svg width="38" height="38" viewBox="0 0 38 38" fill="none" xmlns="http://www.w3.org/2000/svg">
<path d="M19 38C29.4934 38 38 29.4934 38 19C38 8.50659 29.4934 0 19 0C8.50659 0 0 8.50659 0 19C0 29.4934 8.50659 38 19 38Z" fill="#FFE9AC"/>
<path fill-rule="evenodd" clip-rule="evenodd" d="M21.5695 17.6343C20.367 18.8581 16.7623 22.5263 17.9648 21.3025C18.0044 21.2622 15.9585 18.7465 15.8185 18.604C15.5445 18.3221 15.1304 18.1517 14.7407 18.1517C14.3662 18.1517 13.9217 18.319 13.663 18.604C13.3981 18.8983 13.2002 19.2856 13.2185 19.7008C13.2367 20.1128 13.3737 20.5001 13.663 20.7975C14.6798 21.8354 15.6967 22.8702 16.7105 23.9081C16.8506 24.0506 16.9936 24.1962 17.1337 24.3387C17.7152 24.9305 18.7047 24.9305 19.2862 24.3387C20.0442 23.5673 20.7993 22.7989 21.5574 22.0275C22.76 20.8037 23.9595 19.583 25.1621 18.3592C25.4391 18.0773 25.7131 17.7985 25.9902 17.5165C26.2672 17.2346 26.4347 16.8195 26.4347 16.4198C26.4347 16.0387 26.2703 15.5864 25.9902 15.323C25.701 15.0535 25.3204 14.8521 24.9124 14.8707C24.5105 14.8862 24.13 15.0256 23.8408 15.323C23.0827 16.0945 22.3276 16.8628 21.5695 17.6343Z" fill="#FDBD0D"/>
</svg>
